<?xml version="1.0"?>
<svg version="1.1" xmlns="http://www.w3.org/2000/svg" xmlns:xlink="http://www.w3.org/1999/xlink" width="516" height="307">
    <desc iVinci="yes" version="4.6" gridStep="20" showGrid="no" snapToGrid="no" codePlatform="0"/>
    <g id="Layer1" name="Layer 1" opacity="1">
        <g id="Shape1">
            <desc shapeID="1" type="0" basicInfo-basicType="0" basicInfo-roundedRectRadius="12" basicInfo-polygonSides="6" basicInfo-starPoints="5" bounding="rect(-248.631,-145.37,497.263,290.74)" text="" font-familyName="" font-pixelSize="20" font-bold="0" font-underline="0" font-alignment="1" strokeStyle="0" markerStart="0" markerEnd="0" shadowEnabled="0" shadowOffsetX="0" shadowOffsetY="2" shadowBlur="4" shadowOpacity="160" blurEnabled="0" blurRadius="4" transform="matrix(1,0,0,1,258.867,155.389)" pers-center="0,0" pers-size="0,0" pers-start="0,0" pers-end="0,0" locked="0" mesh="" flag=""/>
            <path id="shapePath1" d="M326.163,290.508 C287,283.237 241.582,284.567 202,279.816 C197.946,279.329 189.668,279.037 186.317,276.821 C182.477,274.282 183.824,268.727 177.995,268.238 C168.192,267.417 156.874,273.596 147,274.714 C122.617,277.475 89.3073,271.166 71.4282,253.675 C34.8109,217.852 47.9577,160.227 40.7863,115.001 C39.7689,108.585 33.9078,107.067 30.9884,101.96 C27.6881,96.1865 26.4963,87.46 24.8735,81 C20.8094,64.8228 3.50301,39.3849 13.0895,23.0146 C21.0183,9.47501 48.5192,12.9031 62,11.9097 C67.0753,11.5357 71.8313,9.58102 77,10.1088 C85.445,10.9711 88.874,18.4485 92.5756,25 C100.639,39.2706 108.195,53.8417 116.449,68 C137.155,103.516 165.8,131.872 192.421,163 C200.468,172.41 208.588,181.765 216.834,191 C220.784,195.423 224.901,201.909 230.17,204.821 C236.739,208.451 245.888,204.613 253,207.34 C261.345,210.54 265.522,219.896 274.001,222.362 C288.985,226.72 307.446,225.469 323,227.1 C355.312,230.489 387.609,234.696 420,237.83 C435.01,239.283 450.001,241.859 465,242.91 C476.059,243.686 489.341,242.922 498.985,249.188 C522.108,264.213 492.591,292.32 476,296.346 C430.154,307.472 372.33,294.534 326.163,290.508 Z" style="stroke:#000000;stroke-opacity:1;stroke-width:4;stroke-linejoin:miter;stroke-miterlimit:2;stroke-linecap:butt;fill:none;"/>
        </g>
    </g>
</svg>
