<?xml version="1.0"?>
<svg version="1.1" xmlns="http://www.w3.org/2000/svg" xmlns:xlink="http://www.w3.org/1999/xlink" width="491" height="516">
    <desc iVinci="yes" version="4.6" gridStep="20" showGrid="no" snapToGrid="no" codePlatform="0"/>
    <g id="Layer1" name="Layer 1" opacity="1">
        <g id="Shape1">
            <desc shapeID="1" type="0" basicInfo-basicType="0" basicInfo-roundedRectRadius="12" basicInfo-polygonSides="6" basicInfo-starPoints="5" bounding="rect(-232.064,-249.388,464.129,498.777)" text="" font-familyName="" font-pixelSize="20" font-bold="0" font-underline="0" font-alignment="1" strokeStyle="0" markerStart="0" markerEnd="0" shadowEnabled="0" shadowOffsetX="0" shadowOffsetY="2" shadowBlur="4" shadowOpacity="160" blurEnabled="0" blurRadius="4" transform="matrix(1,0,0,1,245.778,254.945)" pers-center="0,0" pers-size="0,0" pers-start="0,0" pers-end="0,0" locked="0" mesh="" flag=""/>
            <path id="shapePath1" d="M292.962,382 C254.679,382 209.243,377.635 171,375.961 C148.333,374.968 125.085,371.308 104,382.489 C81.6936,394.318 69.3411,419.077 69.3395,444 C69.3385,459.36 75.2772,475.846 70.5563,491 C65.9075,505.922 47.1064,506.901 35,500.865 C6.73766,486.774 12.2104,456.149 19.8873,432 C38.7428,372.688 64.5115,315.413 85.9468,257 C94.2933,234.255 102.132,211.053 114.284,190 C119.759,180.515 128.324,169.643 140,168.185 C170.61,164.363 199.774,208.138 227.985,182.815 C243.548,168.846 238.944,134.897 236.715,116 C235.653,107.002 233.87,94.2378 238.353,86 C254.908,55.5789 290.756,77.3927 316,68.4521 C341.664,59.3627 352.372,30.4379 373.015,15.3009 C388.364,4.04517 415.765,5.24081 434,6.03937 C439.35,6.27365 445.961,6.46884 451,8.32947 C476.753,17.8378 477,47.8146 477,71 C477,124.732 483.801,176.261 458.752,226 C448.235,246.884 423.189,263.454 424.043,289 C425.574,334.789 495.008,381.149 453.56,426.91 C451.114,429.61 448.203,431.904 445,433.647 C415.409,449.75 401.175,400.569 381,390.263 C369.185,384.228 353.866,385.524 341,384.961 C327.012,384.348 306.971,382.002 292.962,382 Z" style="stroke:#000000;stroke-opacity:1;stroke-width:4;stroke-linejoin:miter;stroke-miterlimit:2;stroke-linecap:butt;fill:none;"/>
        </g>
    </g>
</svg>
