<?xml version="1.0"?>
<svg version="1.1" xmlns="http://www.w3.org/2000/svg" xmlns:xlink="http://www.w3.org/1999/xlink" width="516" height="445">
    <desc iVinci="yes" version="4.6" gridStep="20" showGrid="no" snapToGrid="no" codePlatform="0"/>
    <g id="Layer1" name="Layer 1" opacity="1">
        <g id="Shape1">
            <desc shapeID="1" type="0" basicInfo-basicType="0" basicInfo-roundedRectRadius="12" basicInfo-polygonSides="6" basicInfo-starPoints="5" bounding="rect(-248.957,-211.424,497.913,422.847)" text="" font-familyName="" font-pixelSize="20" font-bold="0" font-underline="0" font-alignment="1" strokeStyle="0" markerStart="0" markerEnd="0" shadowEnabled="0" shadowOffsetX="0" shadowOffsetY="2" shadowBlur="4" shadowOpacity="160" blurEnabled="0" blurRadius="4" transform="matrix(1,0,0,1,259.449,216.718)" pers-center="0,0" pers-size="0,0" pers-start="0,0" pers-end="0,0" locked="0" mesh="" flag=""/>
            <path id="shapePath1" d="M78.6549,176.081 C92.0589,154.321 104.266,118.649 114.039,95 C120.222,80.0381 126.064,64.9368 132.309,50 C137.175,38.3597 141.579,18.8633 151.105,10.3403 C164.005,-1.20172 183.668,8.62845 187.228,24 C189.39,33.3318 178.846,48.6053 175.173,57 C168.564,72.1069 159.785,88.318 158.17,105 C156.431,122.958 161.658,145.518 147.896,159.96 C135.816,172.636 115.667,171.848 101,179.691 C89.0909,186.059 81.5658,198.878 93.044,209.895 C101.86,218.357 114.428,215.942 125,212.871 C146.691,206.57 167.757,199.899 190,196.259 C229.738,189.756 265.632,211.56 305,206.872 C323.323,204.69 341.556,186.923 358,179.17 C375.198,171.061 392.464,171 411,171 C446.553,171 493.666,171.156 506.656,212 C508.698,218.422 509.01,227.443 507.286,234 C501.638,255.489 484.35,273.651 472.532,292 C463.903,305.396 458.36,320.269 450.399,334 C447.549,338.915 445.411,344.895 440.907,348.581 C435.019,353.399 426.104,352.491 419,353.17 C395.16,355.448 372.342,346.085 353,332.272 C338.916,322.213 335.214,302.667 352,293.691 C375.491,281.128 403.421,284.165 426.999,271.714 C440.778,264.437 445.203,242.129 432.956,231.465 C418.34,218.737 391.937,222.537 374,220.83 C331.01,216.739 281.533,226.068 241,240.303 C217.765,248.464 196.406,260.505 174,270.25 C154.058,278.923 151.843,238.935 129.004,254.84 C126.667,256.467 124.513,258.463 123.164,261.004 C117.983,270.761 123.693,286.896 125.626,297 C130.63,323.161 133.606,349.753 138.255,376 C140.731,389.976 143.62,405.217 133.242,416.91 C125.27,425.891 114.101,425.971 103,427.285 C76.4287,430.431 39.817,425.545 22.9383,402 C5.30067,377.397 9.30118,348.218 17.2747,321 C27.4642,286.218 47.3196,253.554 60.9012,220 C65.3023,209.127 76.5563,187.831 78.6549,176.081 Z" style="stroke:#000000;stroke-opacity:1;stroke-width:4;stroke-linejoin:miter;stroke-miterlimit:2;stroke-linecap:butt;fill:none;"/>
        </g>
    </g>
</svg>
