<?xml version="1.0"?>
<svg version="1.1" xmlns="http://www.w3.org/2000/svg" xmlns:xlink="http://www.w3.org/1999/xlink" width="398" height="516">
    <desc iVinci="yes" version="4.6" gridStep="20" showGrid="no" snapToGrid="no" codePlatform="0"/>
    <g id="Layer1" name="Layer 1" opacity="1">
        <g id="Shape1">
            <desc shapeID="1" type="0" basicInfo-basicType="0" basicInfo-roundedRectRadius="12" basicInfo-polygonSides="6" basicInfo-starPoints="5" bounding="rect(-191.352,-249.485,382.703,498.97)" text="" font-familyName="" font-pixelSize="20" font-bold="0" font-underline="0" font-alignment="1" strokeStyle="0" markerStart="0" markerEnd="0" shadowEnabled="0" shadowOffsetX="0" shadowOffsetY="2" shadowBlur="4" shadowOpacity="160" blurEnabled="0" blurRadius="4" transform="matrix(1,0,0,1,195.493,255.228)" pers-center="0,0" pers-size="0,0" pers-start="0,0" pers-end="0,0" locked="0" mesh="" flag=""/>
            <path id="shapePath1" d="M89.4444,203.222 C98.5974,171.204 118.797,133.933 131.265,103 C139.238,83.2212 147.389,63.6217 155.716,44 C159.598,34.8527 162.515,24.3673 167.969,16.0038 C180.916,-3.84779 215.024,7.24927 213.895,31 C213.399,41.4422 206.717,52.7597 202.258,62 C194.335,78.4219 184.922,97.0945 181.12,115 C176.404,137.213 185.426,168.374 169.671,186.985 C155.123,204.172 128.135,201.558 110,212.615 C101.424,217.844 92.5702,227.147 96.7824,238 C101.621,250.468 114.985,258.452 128,254.63 C170.257,242.224 211.197,227.021 256,230.09 C279.136,231.674 300.951,241.437 324,244.575 C342.532,247.097 356.743,235.534 374,235.137 C381.335,234.968 388.385,242.483 386.551,250 C382.783,265.446 355.238,265.699 343,267.424 C309.09,272.204 277.395,281.523 246,295.513 C235.014,300.408 223.71,304.731 213,310.258 C207.066,313.321 200.743,318.979 194,319.807 C184.28,321.001 181.38,312.358 176.471,306 C168.321,295.446 156.532,291.311 145.004,299.638 C129.345,310.95 138.409,334.257 140.728,350 C145.511,382.469 151.523,414.657 156.92,447 C159.944,465.123 161.841,482.832 146,495.66 C135.741,503.967 120.419,502.987 108,504.17 C81.9247,506.653 46.7075,500.864 27.0934,481.826 C13.4341,468.568 6.17636,447.539 4.46451,429 C1.36731,395.457 21.2448,358.371 34.6914,329 C52.6131,289.854 67.7534,240.392 89.4444,203.222 Z" style="stroke:#000000;stroke-opacity:1;stroke-width:4;stroke-linejoin:miter;stroke-miterlimit:2;stroke-linecap:butt;fill:none;"/>
        </g>
    </g>
</svg>
