<?xml version="1.0"?>
<svg version="1.1" xmlns="http://www.w3.org/2000/svg" xmlns:xlink="http://www.w3.org/1999/xlink" width="450" height="516">
    <desc iVinci="yes" version="4.6" gridStep="20" showGrid="no" snapToGrid="no" codePlatform="0"/>
    <g id="Layer1" name="Layer 1" opacity="1">
        <g id="Shape1">
            <desc shapeID="1" type="0" basicInfo-basicType="0" basicInfo-roundedRectRadius="12" basicInfo-polygonSides="6" basicInfo-starPoints="5" bounding="rect(-215.768,-251.957,431.536,503.914)" text="" font-familyName="" font-pixelSize="20" font-bold="0" font-underline="0" font-alignment="1" strokeStyle="0" markerStart="0" markerEnd="0" shadowEnabled="0" shadowOffsetX="0" shadowOffsetY="2" shadowBlur="4" shadowOpacity="160" blurEnabled="0" blurRadius="4" transform="matrix(1,0,0,1,224.897,259.715)" pers-center="0,0" pers-size="0,0" pers-start="0,0" pers-end="0,0" locked="0" mesh="" flag=""/>
            <path id="shapePath1" d="M169.685,319.666 C147.649,331.934 119.309,349.199 100,365.439 C92.4469,371.792 83.3126,379.307 83.0548,390 C82.7959,400.738 90.1452,408.789 96,417 C107.284,432.825 121.926,448.606 130.623,466 C138.219,481.189 137.021,497.91 120,505.557 C97.1425,515.826 67.5103,513.713 50.0903,494.999 C39.511,483.634 33.3982,468.318 25.716,455 C16.0152,438.183 4.24918,420.337 11.2492,400 C17.4695,381.928 42.6059,372.637 57,362.255 C88.6693,339.413 121.793,318.456 154,296.341 C166.618,287.676 185.742,279.749 195.427,267.816 C199.019,263.39 197.408,258.162 198.214,253 C198.915,248.508 201.855,244.771 204.192,241 C222.698,211.136 251.38,173.358 252.961,137 C253.929,114.723 240.795,97.0284 238.185,76 C237.155,67.6957 244.85,64.5957 244.778,57.9606 C244.717,52.3491 239.592,47.7095 239.109,42 C238.009,29.0064 255.258,18.898 265,13.1983 C298.094,-6.16394 320.923,31.0558 345,48.2901 C361.749,60.2791 381.136,66.2284 400,74.0108 C411.093,78.5871 423.341,82.119 433.996,87.5579 C438.242,89.7254 441.789,93.9729 440.332,98.9846 C438.023,106.925 424.681,110.501 419,116.015 C412.091,122.721 407.291,131.497 399.996,137.675 C385.336,150.093 367.669,158.722 352,169.721 C333.932,182.404 315.274,194.243 297,206.656 C289.324,211.87 278.225,216.749 272.434,224.093 C264.893,233.656 280.154,243.918 270.775,253.815 C262.391,262.662 248.282,269.158 238,275.695 C216.584,289.312 191.306,306.385 169.685,319.666 Z" style="stroke:#000000;stroke-opacity:1;stroke-width:4;stroke-linejoin:miter;stroke-miterlimit:2;stroke-linecap:butt;fill:none;"/>
        </g>
    </g>
</svg>
