<?xml version="1.0"?>
<svg version="1.1" xmlns="http://www.w3.org/2000/svg" xmlns:xlink="http://www.w3.org/1999/xlink" width="384" height="516">
    <desc iVinci="yes" version="4.6" gridStep="20" showGrid="no" snapToGrid="no" codePlatform="0"/>
    <g id="Layer1" name="Layer 1" opacity="1">
        <g id="Shape1">
            <desc shapeID="1" type="0" basicInfo-basicType="0" basicInfo-roundedRectRadius="12" basicInfo-polygonSides="6" basicInfo-starPoints="5" bounding="rect(-182.718,-253.67,365.436,507.341)" text="" font-familyName="" font-pixelSize="20" font-bold="0" font-underline="0" font-alignment="1" strokeStyle="0" markerStart="0" markerEnd="0" shadowEnabled="0" shadowOffsetX="0" shadowOffsetY="2" shadowBlur="4" shadowOpacity="160" blurEnabled="0" blurRadius="4" transform="matrix(1,0,0,1,191.749,258.766)" pers-center="0,0" pers-size="0,0" pers-start="0,0" pers-end="0,0" locked="0" mesh="" flag=""/>
            <path id="shapePath1" d="M318.349,86.0633 C282.443,121.969 247.193,164.782 209,198.285 C199.957,206.217 191.359,215.276 181,221.535 C177.322,223.758 171.292,227.144 167.434,223.527 C162.249,218.667 166.313,209.18 168.785,204 C174.945,191.088 187.533,179.593 177.2,165.004 C166.696,150.174 138.884,157.487 125,163.429 C119.85,165.633 113.821,168.784 111.179,174.004 C108.178,179.932 110.759,187.687 117.004,190.106 C127.786,194.284 142.501,188.84 142.985,206 C143.753,233.266 134.572,266.274 126,292 C120.765,307.711 111.212,329.184 114.189,346 C116.536,359.26 134.668,365.571 145,371.312 C150.269,374.241 157.08,379.043 155.566,386 C154.197,392.286 147.993,396.855 143,400.254 C131.181,408.3 118.298,414.878 106,422.145 C80.7153,437.085 61.4235,461.941 45.3549,486 C39.4048,494.909 30.9501,517.221 17.0039,511.516 C1.23631,505.067 12.4467,488.759 20.0147,481 C36.1493,464.459 54.4971,449.666 69.4097,432 C75.4187,424.882 82.8694,416.949 82.9205,407 C83.024,386.881 74.798,370.48 80.4252,350 C87.2698,325.088 96.1641,300.508 104.333,276 C108.182,264.455 115.045,250.475 112.772,238 C111.593,231.535 105.387,227.951 100,225.248 C85.714,218.082 47.9133,211.229 57.4792,187 C63.2515,172.379 76.0302,160.937 85.7392,149 C106.418,123.575 125.23,90.1107 157,77.7454 C186.563,66.2391 219.509,61.7873 250,53 C258.9,50.435 269.744,48.6452 277.981,44.4313 C285.715,40.4745 280.111,31.8173 286.148,27.108 C291.19,23.1751 298.118,21.1014 304,18.7971 C320.647,12.2749 357.715,-4.90155 371.581,13.0154 C377.443,20.5895 373.473,29.6 367.699,35.9105 C352.853,52.1372 333.921,70.4892 318.349,86.0633 Z" style="stroke:#000000;stroke-opacity:1;stroke-width:4;stroke-linejoin:miter;stroke-miterlimit:2;stroke-linecap:butt;fill:none;"/>
        </g>
    </g>
</svg>
