<?xml version="1.0"?>
<svg version="1.1" xmlns="http://www.w3.org/2000/svg" xmlns:xlink="http://www.w3.org/1999/xlink" width="516" height="331">
    <desc iVinci="yes" version="4.6" gridStep="20" showGrid="no" snapToGrid="no" codePlatform="0"/>
    <g id="Layer1" name="Layer 1" opacity="1">
        <g id="Shape1">
            <desc shapeID="1" type="0" basicInfo-basicType="0" basicInfo-roundedRectRadius="12" basicInfo-polygonSides="6" basicInfo-starPoints="5" bounding="rect(-244.978,-152.398,489.957,304.796)" text="" font-familyName="" font-pixelSize="20" font-bold="0" font-underline="0" font-alignment="1" strokeStyle="0" markerStart="0" markerEnd="0" shadowEnabled="0" shadowOffsetX="0" shadowOffsetY="2" shadowBlur="4" shadowOpacity="160" blurEnabled="0" blurRadius="4" transform="matrix(1,0,0,1,257.428,165.823)" pers-center="0,0" pers-size="0,0" pers-start="0,0" pers-end="0,0" locked="0" mesh="" flag=""/>
            <path id="shapePath1" d="M51.5009,238.528 C43.2117,222.325 33.3946,201.03 24.7747,185 C20.6934,177.41 12.8973,168.926 12.4715,160 C11.9853,149.811 19.7856,139.552 24.3588,131 C39.4482,102.781 61.4978,80.537 84,58 C95.0847,46.8982 106.191,35.5403 116.829,24.0146 C120.799,19.7135 126.242,12.4996 132.999,13.5239 C139.858,14.5637 142.395,22.2881 144.099,28 C148.104,41.4261 143.548,52.3311 157.001,61.821 C200.095,92.2215 252.758,109.839 305,114.83 C356.487,119.75 407.248,93.7094 454,76.1142 C465.62,71.7409 477.396,67.7531 489,63.3194 C492.563,61.9579 499.539,59.7553 501.914,64.2793 C504.359,68.9379 497.067,73.0436 494,74.9961 C482.979,82.0119 471.822,88.8706 461,96.1937 C445.189,106.893 429.114,117.3 413,127.529 C399.471,136.117 387.838,145.316 371,144.985 C350.494,144.581 329.273,138.786 309,135.87 C303.567,135.089 291.839,131.316 288.318,137.228 C276.559,156.972 302.49,175.051 297.28,194 C294.323,204.755 281.666,213.715 273,219.792 C251.841,234.629 229.777,248.301 208,262.217 C196.91,269.304 184.671,276.924 171,272.826 C163.422,270.553 158.861,263.862 153.8,258.285 C142.25,245.557 131.247,232.205 120.247,219 C113.496,210.896 105.348,199.097 93.0046,203.894 C79.5092,209.138 88.4119,231.019 92.4529,240 C101.781,260.731 134.146,263.894 136.892,290 C138.776,307.911 110.305,323.639 95,316.432 C83.1132,310.835 77.0796,294.163 71.8843,283 C65.8464,270.027 57.7596,251.401 51.5009,238.528 Z" style="stroke:#000000;stroke-opacity:1;stroke-width:4;stroke-linejoin:miter;stroke-miterlimit:2;stroke-linecap:butt;fill:none;"/>
        </g>
    </g>
</svg>
