<?xml version="1.0"?>
<svg version="1.1" xmlns="http://www.w3.org/2000/svg" xmlns:xlink="http://www.w3.org/1999/xlink" width="516" height="459">
    <desc iVinci="yes" version="4.6" gridStep="20" showGrid="no" snapToGrid="no" codePlatform="0"/>
    <g id="Layer1" name="Layer 1" opacity="1">
        <g id="Shape1">
            <desc shapeID="1" type="0" basicInfo-basicType="0" basicInfo-roundedRectRadius="12" basicInfo-polygonSides="6" basicInfo-starPoints="5" bounding="rect(-245.833,-211.711,491.665,423.421)" text="" font-familyName="" font-pixelSize="20" font-bold="0" font-underline="0" font-alignment="1" strokeStyle="0" markerStart="0" markerEnd="0" shadowEnabled="0" shadowOffsetX="0" shadowOffsetY="2" shadowBlur="4" shadowOpacity="160" blurEnabled="0" blurRadius="4" transform="matrix(1,0,0,1,259.089,229.786)" pers-center="0,0" pers-size="0,0" pers-start="0,0" pers-end="0,0" locked="0" mesh="" flag=""/>
            <path id="shapePath1" d="M66.4375,332.472 C57.2638,307.565 40.154,276.551 27.9043,253 C22.7785,243.145 14.7934,234.335 13.4429,223 C11.7422,208.726 22.0884,196.173 27.8302,184 C47.5295,142.238 83.3719,108.779 115.834,76.7145 C130.071,62.6521 144.333,47.8945 157.714,33.0146 C163.469,26.6145 171.106,16.5128 181,18.2793 C188.988,19.7054 192.061,27.1936 194.34,34 C199.014,47.963 194.262,64.8314 204.264,76.9992 C210.952,85.1351 220.244,89.9312 229,95.3657 C250.79,108.891 274.36,119.886 298,129.786 C328.126,142.403 360.81,151.471 393,156.741 C412.42,159.92 432.511,158.415 452,160.715 C465.238,162.276 498.082,156.703 503.522,173.001 C509.384,190.568 495.863,198.03 481,198 C462.776,197.964 439.74,192.719 422,188.29 C414.618,186.447 402.273,182.136 396.653,189.189 C393.505,193.14 394.105,198.276 393.754,203 C392.966,213.612 394.708,224.31 399.181,234 C404.414,245.335 412.848,253.405 409.529,267 C405.478,283.595 387.298,296.194 374,305.075 C345.118,324.363 316.458,343.717 287,362.158 C274.281,370.12 258.139,383.006 242,380.791 C226.567,378.672 218.706,369.056 208.834,358 C193.965,341.347 179.583,324.164 165.285,307 C156.304,296.217 145.015,276.84 128,281.728 C105.449,288.207 117.525,316.155 123.225,331 C131.248,351.893 145.241,351.977 160.91,364.04 C168.182,369.639 172.732,378.508 177.742,386 C181.794,392.059 185.889,397.469 186.251,405 C187.384,428.585 149.016,447.579 129,439.677 C112.178,433.035 101.857,408.78 95.1451,393 C87.2576,374.456 75.2818,350.593 66.4375,332.472 Z" style="stroke:#000000;stroke-opacity:1;stroke-width:4;stroke-linejoin:miter;stroke-miterlimit:2;stroke-linecap:butt;fill:none;"/>
        </g>
    </g>
</svg>
