<?xml version="1.0"?>
<svg version="1.1" xmlns="http://www.w3.org/2000/svg" xmlns:xlink="http://www.w3.org/1999/xlink" width="430" height="516">
    <desc iVinci="yes" version="4.6" gridStep="20" showGrid="no" snapToGrid="no" codePlatform="0"/>
    <g id="Layer1" name="Layer 1" opacity="1">
        <g id="Shape1">
            <desc shapeID="1" type="0" basicInfo-basicType="0" basicInfo-roundedRectRadius="12" basicInfo-polygonSides="6" basicInfo-starPoints="5" bounding="rect(-206.921,-249.548,413.842,499.095)" text="" font-familyName="" font-pixelSize="20" font-bold="0" font-underline="0" font-alignment="1" strokeStyle="0" markerStart="0" markerEnd="0" shadowEnabled="0" shadowOffsetX="0" shadowOffsetY="2" shadowBlur="4" shadowOpacity="160" blurEnabled="0" blurRadius="4" transform="matrix(1,0,0,1,214.968,258.309)" pers-center="0,0" pers-size="0,0" pers-start="0,0" pers-end="0,0" locked="0" mesh="" flag=""/>
            <path id="shapePath1" d="M85.1569,344.244 C65.3002,310.223 47.8455,267.989 29.7415,233 C22.2276,218.478 8.40707,204.212 8.05402,187 C7.78453,173.862 15.9995,160.324 21.7562,149 C35.2387,122.478 49.1005,95.4792 68.8449,73 C84.7608,54.8796 100.814,36.9565 118,20.0038 C126.509,11.6104 140.162,5.2507 151.996,10.9197 C159.355,14.4452 163.786,23.3641 167.95,30 C177.251,44.8222 182.171,60.5712 183.83,78 C185.176,92.1326 184.204,105.306 189.09,119 C196.067,138.559 212.013,155.08 223.653,172 C246.56,205.297 269.48,241.654 296.184,272 C317.512,296.236 352.022,306.165 383,310.728 C394.008,312.35 418.13,312.171 421.552,326 C424.428,337.624 408.05,346.085 404.75,356 C400.887,367.607 406.823,380.983 401.312,392 C397.295,400.03 387.882,404.949 380,408.434 C362.817,416.032 343.483,422.686 325,415.074 C308.181,408.147 297.562,391.058 285.831,378 C258.755,347.862 233.525,315.957 207.335,285.043 C197.067,272.923 172.854,269.727 161.558,282.329 C149.418,295.871 158.887,318.433 163.28,333 C167.415,346.712 173.733,365.146 185.039,374.621 C195.706,383.561 210.344,386.144 221.996,393.468 C233.385,400.625 239.987,415.189 247.344,426 C252.746,433.939 258.834,441.087 259.829,451 C261.794,470.572 249.057,481.23 234,491.225 C212.982,505.178 190.866,516.049 167.015,499.532 C150.515,488.107 139.996,462.786 132.138,445 C118.062,413.141 100.445,375.573 85.1569,344.244 Z" style="stroke:#000000;stroke-opacity:1;stroke-width:4;stroke-linejoin:miter;stroke-miterlimit:2;stroke-linecap:butt;fill:none;"/>
        </g>
    </g>
</svg>
