<?xml version="1.0"?>
<svg version="1.1" xmlns="http://www.w3.org/2000/svg" xmlns:xlink="http://www.w3.org/1999/xlink" width="516" height="227">
    <desc iVinci="yes" version="4.6" gridStep="20" showGrid="no" snapToGrid="no" codePlatform="0"/>
    <g id="Layer1" name="Layer 1" opacity="1">
        <g id="Shape1">
            <desc shapeID="1" type="0" basicInfo-basicType="0" basicInfo-roundedRectRadius="12" basicInfo-polygonSides="6" basicInfo-starPoints="5" bounding="rect(-250.723,-106.027,501.447,212.055)" text="" font-familyName="" font-pixelSize="20" font-bold="0" font-underline="0" font-alignment="1" strokeStyle="0" markerStart="0" markerEnd="0" shadowEnabled="0" shadowOffsetX="0" shadowOffsetY="2" shadowBlur="4" shadowOpacity="160" blurEnabled="0" blurRadius="4" transform="matrix(1,0,0,1,258.551,110.557)" pers-center="0,0" pers-size="0,0" pers-start="0,0" pers-end="0,0" locked="0" mesh="" flag=""/>
            <path id="shapePath1" d="M193.524,214 C180.992,215.256 161.711,215 149,215 C123.989,215 99.0522,216 74,216 C60.9639,216 43.4519,218.987 32.0147,211.451 C23.3991,205.775 20.3292,195.231 16.9529,186 C12.3896,173.523 5.70981,158.522 8.47917,145 C10.4191,135.528 17.3692,125.254 22.2662,117 C26.2906,110.217 30.2544,98.2669 38.0401,95.01 C44.7348,92.2095 49.7944,98.0661 51.5062,104 C56.2537,120.458 56.7239,141.992 75,149.174 C90.3377,155.2 113.628,151 130,151 L251,151 L290,151 C295.216,151 301.784,151.624 305.254,146.786 C308.82,141.814 304.174,136.872 299.996,134.353 C290.354,128.538 278.524,125.21 268,121.319 C248.708,114.186 227.138,102.911 206,105.174 C189.67,106.922 172.999,111.202 157,114.881 C147.22,117.13 136.874,120.65 127,117.239 C113.061,112.424 100.673,93.9948 94.9043,81 C92.3454,75.2358 91.4858,66.2086 97.2137,61.9946 C107.182,54.6611 125.95,60.8147 137,62.5895 C168.322,67.6205 203.315,77.3624 235,75.9606 C263.149,74.7153 281.575,40.8319 299.039,23.0147 C308.586,13.2758 331.936,-1.51425 345.996,7.14815 C355.653,13.0974 355,23.0395 355,33 C355,50.6811 353.177,69.5399 356.328,87 C360.388,109.494 389.769,120.189 408,128.001 C414.079,130.606 420.427,134.553 427,135.671 C441.403,138.12 448.076,124.136 440.896,113 C431.503,98.4331 415.176,85.3222 408.995,69 C404.559,57.2893 411.667,45.7333 423,42.044 C426.664,40.8511 431.143,40.338 435,40.3395 C456.177,40.3477 468.042,65.5707 478.333,81 C487.838,95.2499 501.278,110.516 506.535,127 C515.896,156.35 500.26,189.25 475,204.732 C448.786,220.799 415.139,215 386,215 C323.343,215 256.095,214 193.524,214 Z" style="stroke:#000000;stroke-opacity:1;stroke-width:4;stroke-linejoin:miter;stroke-miterlimit:2;stroke-linecap:butt;fill:none;"/>
        </g>
    </g>
</svg>
