<?xml version="1.0"?>
<svg version="1.1" xmlns="http://www.w3.org/2000/svg" xmlns:xlink="http://www.w3.org/1999/xlink" width="516" height="235">
    <desc iVinci="yes" version="4.6" gridStep="20" showGrid="no" snapToGrid="no" codePlatform="0"/>
    <g id="Layer1" name="Layer 1" opacity="1">
        <g id="Shape1">
            <desc shapeID="1" type="0" basicInfo-basicType="0" basicInfo-roundedRectRadius="12" basicInfo-polygonSides="6" basicInfo-starPoints="5" bounding="rect(-250.615,-107.675,501.231,215.35)" text="" font-familyName="" font-pixelSize="20" font-bold="0" font-underline="0" font-alignment="1" strokeStyle="0" markerStart="0" markerEnd="0" shadowEnabled="0" shadowOffsetX="0" shadowOffsetY="2" shadowBlur="4" shadowOpacity="160" blurEnabled="0" blurRadius="4" transform="matrix(1,0,0,1,258.475,118.682)" pers-center="0,0" pers-size="0,0" pers-start="0,0" pers-end="0,0" locked="0" mesh="" flag=""/>
            <path id="shapePath1" d="M200,225.305 L80,225 C65.7217,225 44.4245,228.886 32.0147,220.301 C24.4443,215.064 21.8453,205.112 18.6003,197 C13.5505,184.376 5.88463,167.944 8.3287,154 C9.94044,144.805 16.3857,136.061 20.7693,128 C24.8906,120.421 30.5784,104.746 40,102.817 C49.5863,100.854 51.4494,111.164 53.0108,118 C56.3247,132.51 59.4444,151.502 75,157.444 C91.9016,163.901 115.109,160 133,160 L253,160 L294,160 C298.643,160 305.908,161.346 309.852,158.397 C322.853,148.672 291.744,138.443 286,136 C270.122,129.247 253.838,119.785 237,115.887 C224.747,113.051 212.325,114.933 200,112.854 C191.843,111.478 184.547,106.564 182.992,98 C181.035,87.2156 188.876,80.2524 199,79.7492 C219.37,78.7368 241.818,88.2328 260,75.2114 C278.898,61.677 291.564,40.5904 309.001,25.5795 C317.293,18.4404 325.562,11.5402 337,11.0394 C346.802,10.6101 357.676,14.4583 360.442,25 C366.387,47.6587 356.284,73.1858 363.209,96 C369.874,117.956 390.14,125.287 409,134.255 C417.43,138.264 426.797,143.629 436,145.478 C450.378,148.368 454.006,132.85 448.074,123 C438.73,107.483 421.588,92.1989 415.853,75 C411.106,60.7601 423.192,48.5067 437,48.0432 C460.445,47.2563 473.455,66.6828 485,84 C492.711,95.5669 504.392,108.411 508.073,122 C510.649,131.514 507.772,140.759 505.651,150 C500.64,171.834 496.85,203.259 477,216.945 C456.262,231.244 419.883,225 396,225 L200,225.305 Z" style="stroke:#000000;stroke-opacity:1;stroke-width:4;stroke-linejoin:miter;stroke-miterlimit:2;stroke-linecap:butt;fill:none;"/>
        </g>
    </g>
</svg>
