<?xml version="1.0"?>
<svg version="1.1" xmlns="http://www.w3.org/2000/svg" xmlns:xlink="http://www.w3.org/1999/xlink" width="516" height="227">
    <desc iVinci="yes" version="4.6" gridStep="20" showGrid="no" snapToGrid="no" codePlatform="0"/>
    <g id="Layer1" name="Layer 1" opacity="1">
        <g id="Shape1">
            <desc shapeID="1" type="0" basicInfo-basicType="0" basicInfo-roundedRectRadius="12" basicInfo-polygonSides="6" basicInfo-starPoints="5" bounding="rect(-251.445,-106.271,502.889,212.541)" text="" font-familyName="" font-pixelSize="20" font-bold="0" font-underline="0" font-alignment="1" strokeStyle="0" markerStart="0" markerEnd="0" shadowEnabled="0" shadowOffsetX="0" shadowOffsetY="2" shadowBlur="4" shadowOpacity="160" blurEnabled="0" blurRadius="4" transform="matrix(1,0,0,1,258.275,111.388)" pers-center="0,0" pers-size="0,0" pers-start="0,0" pers-end="0,0" locked="0" mesh="" flag=""/>
            <path id="shapePath1" d="M199.022,216 C160.396,216 117.693,217 79,217 C64.4347,217 42.4809,220.501 30.0154,211.362 C22.2259,205.651 18.7312,193.765 15.6566,185 C11.3477,172.715 5.00188,159.368 7.3287,146 C9.0479,136.123 15.7222,126.586 20.5756,118 C24.5332,110.999 30.1015,95.9339 39.0008,94.4383 C46.9278,93.106 50.2,101.91 51.5748,108 C54.7039,121.86 56.7837,141.186 71,148.084 C84.3832,154.578 104.446,151 119,151 C153.052,151 186.944,152 221,152 C233.367,152 257.273,156.562 267.985,149.991 C282.991,140.785 272.592,124.714 261,118.757 C251.316,113.78 241.925,108.835 231,107.285 C219.526,105.658 207.135,107.428 196,103.945 C187.699,101.349 181.525,94.9505 181.877,86 C182.277,75.8705 191.622,70.6296 201,71.3248 C220.735,72.788 240.579,78.4481 258,65.7106 C281.198,48.7494 301.93,5.92075 334,5.12886 C354.036,4.63411 355,20.6105 355,36 C355,59.676 348.337,102.994 377,114.045 C389.666,118.928 399.99,113.613 410,106 C414.553,102.537 419.98,99.3982 420.067,93 C420.286,76.8788 393.295,58.4137 416,45.3665 C419.047,43.6155 422.613,42.4792 426,41.5833 C430.263,40.4558 434.663,39.8115 439,40.848 C458.243,45.4471 471.375,67.5791 481.308,83 C499.09,110.608 521.363,143.377 502.601,177 C499.429,182.685 494.618,187.473 490,191.985 C484.432,197.425 477.92,203.363 471,207.015 C445.085,220.693 410.322,216 382,216 L199.022,216 Z" style="stroke:#000000;stroke-opacity:1;stroke-width:4;stroke-linejoin:miter;stroke-miterlimit:2;stroke-linecap:butt;fill:none;"/>
        </g>
    </g>
</svg>
