<?xml version="1.0"?>
<svg version="1.1" xmlns="http://www.w3.org/2000/svg" xmlns:xlink="http://www.w3.org/1999/xlink" width="516" height="235">
    <desc iVinci="yes" version="4.6" gridStep="20" showGrid="no" snapToGrid="no" codePlatform="0"/>
    <g id="Layer1" name="Layer 1" opacity="1">
        <g id="Shape1">
            <desc shapeID="1" type="0" basicInfo-basicType="0" basicInfo-roundedRectRadius="12" basicInfo-polygonSides="6" basicInfo-starPoints="5" bounding="rect(-251.107,-107.766,502.213,215.531)" text="" font-familyName="" font-pixelSize="20" font-bold="0" font-underline="0" font-alignment="1" strokeStyle="0" markerStart="0" markerEnd="0" shadowEnabled="0" shadowOffsetX="0" shadowOffsetY="2" shadowBlur="4" shadowOpacity="160" blurEnabled="0" blurRadius="4" transform="matrix(1,0,0,1,257.897,118.753)" pers-center="0,0" pers-size="0,0" pers-start="0,0" pers-end="0,0" locked="0" mesh="" flag=""/>
            <path id="shapePath1" d="M200.195,225 L81,225 C67.756,225 45.8147,229.054 34.044,221.91 C21.0505,214.025 39.803,202.687 36.2423,193.039 C32.0947,181.801 14.4034,177.153 8.57253,166 C0.838196,151.207 20.3477,128.088 27.6003,116 C30.5845,111.026 33.5601,103.529 40.0039,102.438 C48.0528,101.076 51.0495,109.913 52.4236,116 C55.5599,129.892 57.7753,149.353 72,156.088 C86.7252,163.06 106.16,160 122,160 L225,160 C239.329,160 262.618,164.46 274.957,156.031 C291.4,144.797 273.704,131.565 263,126.248 C249.84,119.71 236.612,115.56 222,114.17 C214.048,113.413 205.774,115.12 198,112.826 C189.586,110.344 183.008,104.022 183.008,95 C183.008,81.3446 195.161,79.9993 206,80 C230.629,80.0016 245.93,86.7307 267,69.385 C282.18,56.8884 293.963,40.7082 308,27.0147 C315.448,19.7491 324.073,11.5361 335,11.0394 C359.068,9.94524 361,26.2101 361,46 C361,72.1692 354.925,110.959 386,122.728 C399.651,127.898 429.063,115.533 428.802,99 C428.653,89.5911 418.681,83.4797 415.853,75 C409.072,54.6593 431.975,45.6334 448,49.7593 C471.679,55.8556 482.694,81.251 495.167,100 C501.053,108.848 508.155,117.995 508.909,129 C509.872,143.049 503.26,158.521 499.873,172 C495.592,189.041 491.011,210.091 474,219.015 C451.068,231.044 415.088,225 390,225 L200.195,225 Z" style="stroke:#000000;stroke-opacity:1;stroke-width:4;stroke-linejoin:miter;stroke-miterlimit:2;stroke-linecap:butt;fill:none;"/>
        </g>
    </g>
</svg>
