<?xml version="1.0" standalone="yes"?>
<svg xmlns="http://www.w3.org/2000/svg" width="516" height="136">
<path style="stroke:#000000; stroke-width:4px; fill:none;" d="M426.588,51.5524 C426.588,51.5524 448.216,63.043 463.439,70.7935 C463.439,70.7935 491.594,84.971 493.673,85.9162 C495.753,86.8614 506.97,92.8848 510.749,105.387 C512.568,111.402 512.733,116.523 510.749,121.528 C507.621,129.421 502.014,131.718 496.31,131.474 C492.325,131.303 486.336,128.492 479.694,123.405 C475.238,119.991 467.287,113.194 463.661,110.852 C460.529,108.83 456.06,105.451 450.815,105.136 C443.798,104.715 437.687,109.698 429.182,109.698 C421.148,109.698 414.734,100.135 412.371,96.7075 C408.503,91.0976 403.552,85.6901 397.696,84.3669 C392.909,83.2853 384.848,85.3502 381.377,86.4818 C377.318,87.805 370.702,90.5846 364.307,88.9408 C357.242,87.1246 351.336,79.3423 350.258,70.7935 C349.212,62.5006 347.554,48.5035 344.764,45.0847 C340.536,39.9052 334.751,37.2176 322.901,37.7124 C311.566,38.1857 300.095,42.4494 294.988,45.0847 C289.167,48.0893 280.158,56.9588 277.791,61.5516 C274.573,67.7953 272.069,74.1001 269.408,85.7083 C268.393,90.1342 265.958,100.489 261.385,106.532 C258,111.006 251.643,114.895 245.405,118.642 C241.274,121.124 231.047,126.006 226.949,124.051 C220.355,120.905 216.443,110.783 210.843,103.925 C208.042,100.494 197.623,86.3976 193.794,79.9881 C190.356,74.2321 186.394,65.7953 185.427,59.3581 C184.386,52.439 185.942,45.3475 185.427,40.5479 C184.98,36.3892 184.807,32.567 179.677,32.4194 C173.804,32.2504 174.085,39.8146 173.558,45.2966 C173.033,50.7534 171.308,61.8477 169.729,68.1603 C168.145,74.4944 165.434,82.4313 155.177,91.2665 C151.035,94.8344 135.152,102.741 126.559,103.925 C112.123,105.914 105.951,107.088 88.6945,103.29 C79.0572,101.169 68.6951,93.2313 63.1748,88.7517 C58.5029,84.9607 51.2938,76.8413 43.6698,70.0468 C33.6039,61.0762 29.3242,62.0445 24.0313,62.9897 C18.7383,63.9348 12.0595,67.6875 7.45351,73.3866 C5.45496,75.8594 1.9794,85.5225 5.23846,90.0634 C7.45351,93.1496 13.8802,98.0657 16.1366,99.1043 C23.968,102.709 31.2297,104.395 39.7715,106.532 C48.5568,108.731 65.8096,112.368 73.371,112.935 C80.9324,113.502 92.7215,113.704 101.039,113.704 C109.357,113.704 124.688,112.609 134.139,112.263 C143.587,111.918 155.969,111.66 165.05,111.411 C175.129,111.135 185.159,110.869 193.477,110.113 C201.794,109.357 211.057,110.066 219.375,106.853 C227.692,103.639 237.941,96.8708 243.888,90.4679 C250.615,83.2252 259.201,67.7554 262.01,60.4207 C265.193,52.1086 272.766,36.226 273.9,34.5247 C275.035,32.8234 277.895,27.664 282.428,27.4897 C286.982,27.3147 289.836,29.4592 292.636,27.8573 C297.744,24.9346 305.112,13.3269 308.703,10.4914 C312.295,7.6559 322.261,5.58708 328.93,6.42239 C335.779,7.2802 346.112,9.46175 353.485,13.4315 C360.857,17.4012 388.064,29.5664 399.525,36.3892 C404.763,39.5076 426.588,51.5524 426.588,51.5524 Z"/>
</svg>
