<?xml version="1.0"?>
<svg version="1.1" xmlns="http://www.w3.org/2000/svg" xmlns:xlink="http://www.w3.org/1999/xlink" width="331" height="516">
    <desc iVinci="yes" version="4.6" gridStep="20" showGrid="no" snapToGrid="no" codePlatform="0"/>
    <g id="Layer1" name="Layer 1" opacity="1">
        <g id="Shape1">
            <desc shapeID="1" type="0" basicInfo-basicType="0" basicInfo-roundedRectRadius="12" basicInfo-polygonSides="6" basicInfo-starPoints="5" bounding="rect(-156.017,-246.169,312.033,492.338)" text="" font-familyName="" font-pixelSize="20" font-bold="0" font-underline="0" font-alignment="1" strokeStyle="0" markerStart="0" markerEnd="0" shadowEnabled="0" shadowOffsetX="0" shadowOffsetY="2" shadowBlur="4" shadowOpacity="160" blurEnabled="0" blurRadius="4" transform="matrix(1,0,0,1,165.994,259.536)" pers-center="0,0" pers-size="0,0" pers-start="0,0" pers-end="0,0" locked="0" mesh="" flag=""/>
            <path id="shapePath1" d="M261.423,21.2917 C251.078,19.847 235.691,16.1611 225,14.5787 C220.655,13.9356 215.022,12.1198 211.059,14.7462 C205.821,18.2171 206.251,25.533 204.961,31 C201.513,45.6023 198.933,60.3139 195.88,75 C187.041,117.519 177.314,160.178 170.081,203 C167.812,216.431 165.165,229.744 162.039,243 C160.597,249.119 160.716,255.842 156.467,260.895 C148.631,270.212 136.17,266.654 127,261.765 C111.169,253.326 96.2412,240.386 79,234.85 C71.9044,232.571 60.7526,232.892 55.348,238.468 C47.4416,246.625 63.0823,257.169 66.7361,264.001 C71.4316,272.78 69.6812,287.818 66.8171,297 C62.873,309.645 49.8831,313.484 40,320.559 C22.5429,333.054 8.93068,350.908 10.0401,373 C10.4889,381.937 16.5346,390.62 21.1165,398 C26.6301,406.88 31.6647,419.521 40.0934,425.956 C58.0501,439.666 89.0845,430.881 110,435.099 C116.641,436.438 122.376,440.598 129,442.156 C133.767,443.277 139.51,442.006 143.91,444.318 C148.309,446.629 149.861,451.886 154.104,454.431 C157.826,456.664 162.326,456.518 165.999,458.727 C172.061,462.372 176.309,468.611 182,472.815 C188.379,477.527 196.375,479.588 201.471,486.015 C205.629,491.261 207.933,504.906 216.004,505.685 C223.976,506.454 234.113,484.893 237.702,479 C256.515,448.112 254.26,407.367 262.441,373 C273.864,325.01 275.971,274.686 288.735,227 C292.243,213.894 297.721,200.945 304.083,189 C308.216,181.241 315.058,171.747 316.341,163 C317.543,154.806 311.29,149.749 307.996,143 C305.372,137.623 305.589,130.826 306.285,125 C308.726,104.597 312.89,82.9771 317.748,63 C319.51,55.7569 324.793,41.9452 320.142,35.1335 C316.784,30.2147 308.402,29.5021 303,28.8449 C290.67,27.3448 273.282,24.8298 261.423,21.2917 Z" style="stroke:#000000;stroke-opacity:1;stroke-width:4;stroke-linejoin:miter;stroke-miterlimit:2;stroke-linecap:butt;fill:none;"/>
        </g>
    </g>
</svg>
