<?xml version="1.0"?>
<svg version="1.1" xmlns="http://www.w3.org/2000/svg" xmlns:xlink="http://www.w3.org/1999/xlink" width="516" height="455">
    <desc iVinci="yes" version="4.6" gridStep="20" showGrid="no" snapToGrid="no" codePlatform="0"/>
    <g id="Layer1" name="Layer 1" opacity="1">
        <g id="Shape1">
            <desc shapeID="1" type="0" basicInfo-basicType="0" basicInfo-roundedRectRadius="12" basicInfo-polygonSides="6" basicInfo-starPoints="5" bounding="rect(-243.972,-219.822,487.943,439.643)" text="" font-familyName="" font-pixelSize="20" font-bold="0" font-underline="0" font-alignment="1" strokeStyle="0" markerStart="0" markerEnd="0" shadowEnabled="0" shadowOffsetX="0" shadowOffsetY="2" shadowBlur="4" shadowOpacity="160" blurEnabled="0" blurRadius="4" transform="matrix(1,0,0,1,255.754,224.927)" pers-center="0,0" pers-size="0,0" pers-start="0,0" pers-end="0,0" locked="0" mesh="" flag=""/>
            <path id="shapePath1" d="M376.659,286.111 C368.15,277.973 352.011,265.144 341,260.811 C319.01,252.157 294.688,257.891 272,258.001 C246.177,258.125 239.047,272.482 226.33,292 C219.826,301.982 211.351,317.892 197,315.356 C186.8,313.553 176.589,304.663 169,298.053 C154.745,285.637 141.739,272.935 130.015,258 C123.273,249.413 117.742,238.416 108,232.804 C94.9977,225.313 77.085,231.282 63,227.211 C54.7382,224.823 47.83,217.724 42.865,211 C34.1138,199.149 27.3298,186.622 19.8557,174 C12.2423,161.143 5.44409,148.422 22,139.044 C30.9413,133.979 42.0045,131.992 52,130.095 C61.3759,128.315 72.4486,125.159 82,126.287 C133.578,132.376 141.827,189.082 173.17,219.871 C191.1,237.485 221.707,229.412 232.95,208 C246.787,181.647 224.115,154.499 205,138.961 C180.411,118.975 150.822,98.5078 122,85.3087 C106.615,78.263 91.3592,70.9464 76,63.8357 C67.3943,59.8516 56.3051,55.8412 49.0401,49.7222 C33.5628,36.6864 58.4018,6.00687 74,5.12424 C90.3915,4.19672 96.2972,36.8574 104.518,46.9846 C116.363,61.577 136.07,60.6747 151,69.3634 C164.309,77.109 173.111,91.6466 186,99.8673 C201.542,109.78 220.999,104.718 238,108.376 C249.338,110.815 259.931,120.014 269,126.759 C286.67,139.901 303.136,154.573 320,168.675 C333.748,180.172 348.917,191.557 360.581,205.285 C368.615,214.741 353.931,225.692 365.044,234.525 C381.285,247.436 406.975,239.664 425,247.754 C453.3,260.455 462.08,304.432 470.205,331 C478.226,357.227 486.44,383.507 493.576,410 C495.693,417.857 503.443,431.493 497.566,438.906 C484.271,455.677 472.245,432.125 468.153,421 C458.818,395.625 456.445,367.284 441.731,344 C434.057,331.856 420.86,321.757 410,312.59 C402.537,306.291 384.457,290.353 376.659,286.111 Z" style="stroke:#000000;stroke-opacity:1;stroke-width:4;stroke-linejoin:miter;stroke-miterlimit:2;stroke-linecap:butt;fill:none;"/>
        </g>
    </g>
</svg>
