<?xml version="1.0"?>
<svg version="1.1" xmlns="http://www.w3.org/2000/svg" xmlns:xlink="http://www.w3.org/1999/xlink" width="408" height="516">
    <desc iVinci="yes" version="4.6" gridStep="20" showGrid="no" snapToGrid="no" codePlatform="0"/>
    <g id="Layer1" name="Layer 1" opacity="1">
        <g id="Shape1">
            <desc shapeID="1" type="0" basicInfo-basicType="0" basicInfo-roundedRectRadius="12" basicInfo-polygonSides="6" basicInfo-starPoints="5" bounding="rect(-199.57,-246.129,399.139,492.258)" text="" font-familyName="" font-pixelSize="20" font-bold="0" font-underline="0" font-alignment="1" strokeStyle="0" markerStart="0" markerEnd="0" shadowEnabled="0" shadowOffsetX="0" shadowOffsetY="2" shadowBlur="4" shadowOpacity="160" blurEnabled="0" blurRadius="4" transform="matrix(1,0,0,1,202.751,260.18)" pers-center="0,0" pers-size="0,0" pers-start="0,0" pers-end="0,0" locked="0" mesh="" flag=""/>
            <path id="shapePath1" d="M58.2644,136.647 C41.1016,167.908 17.2671,205.924 9.03935,241 C4.63297,259.785 5.03096,280.743 5,300 C4.98112,311.748 1.15736,326.62 4.65201,338 C8.52286,350.605 20.6918,358.729 33,352.895 C51.1466,344.293 42.6271,325.743 39,311 C33.637,289.201 35.7991,268.779 39.9051,247 C41.7619,237.151 44.1837,225.48 54,220.314 C62.5771,215.8 74.262,219.081 83,221.321 C95.6217,224.557 108.46,227.049 121,230.599 C134.807,234.508 151.395,236.252 164,243.184 C189.739,257.337 190,283.958 190,310 C190,330.682 190.037,350.812 185.255,371 C177.53,403.609 161.491,434.305 154.518,467 C148.239,496.439 180.047,509.119 204,505.791 C227.951,502.463 251.999,497.862 276,495.129 C288.406,493.716 300.672,491.533 313,490.129 C331.024,488.076 350.078,487.559 362.521,471.999 C387.562,440.686 387.955,401.5 390.043,364 C391.482,338.166 392.652,312.048 393.004,286 C393.235,268.908 404.955,252.353 401.772,235.001 C400.37,227.364 392.631,227.463 387,224.548 C380.85,221.365 377.88,215.519 376.456,209 C370.037,179.612 393.407,139.687 360.715,118.88 C353.114,114.043 344.591,115 336,115 C310.469,115 286.561,127.48 262,132.955 C249.951,135.641 240.947,141.046 229,133.786 C218.864,127.627 214.954,115.108 209.975,105 C199.799,84.3398 189.173,63.9939 179.724,43 C174.959,32.4136 170.588,12.1905 156,14.189 C145.226,15.6649 134.859,36.6317 128.86,45 C107.621,74.6241 81.1443,108.263 58.2644,136.647 Z" style="stroke:#000000;stroke-opacity:1;stroke-width:4;stroke-linejoin:miter;stroke-miterlimit:2;stroke-linecap:butt;fill:none;"/>
        </g>
    </g>
</svg>
