<?xml version="1.0"?>
<svg version="1.1" xmlns="http://www.w3.org/2000/svg" xmlns:xlink="http://www.w3.org/1999/xlink" width="500" height="516">
    <desc iVinci="yes" version="4.6" gridStep="20" showGrid="no" snapToGrid="no" codePlatform="0"/>
    <g id="Layer1" name="Layer 1" opacity="1">
        <g id="Shape1">
            <desc shapeID="1" type="0" basicInfo-basicType="0" basicInfo-roundedRectRadius="12" basicInfo-polygonSides="6" basicInfo-starPoints="5" bounding="rect(-231.276,-245.627,462.551,491.255)" text="" font-familyName="" font-pixelSize="20" font-bold="0" font-underline="0" font-alignment="1" strokeStyle="0" markerStart="0" markerEnd="0" shadowEnabled="0" shadowOffsetX="0" shadowOffsetY="2" shadowBlur="4" shadowOpacity="160" blurEnabled="0" blurRadius="4" transform="matrix(1,0,0,1,250.812,251.957)" pers-center="0,0" pers-size="0,0" pers-start="0,0" pers-end="0,0" locked="0" mesh="" flag=""/>
            <path id="shapePath1" d="M315,497 L81,497 C64.536,497 45.6964,499.605 30,493.815 C19.3058,489.87 16.2299,477.893 23.483,469.039 C28.2126,463.266 34.9923,460.057 41,455.91 C82.4335,427.313 126.77,431 175,431 C193.936,431 233.494,438.678 242.157,416 C248.476,399.456 238.826,388.413 225,381.5 C206.673,372.336 177.755,367.574 168.954,347 C161.065,328.555 159.274,306.564 155.745,287 C149.793,253.999 140.824,221.21 136.209,188 C134.436,175.236 133.331,161.927 133.015,149 C132.797,140.123 134.288,129.401 130.772,121 C127.085,112.193 117.362,106.198 110,100.731 C96.199,90.4837 82.3512,80.1032 69,69.3094 C63.216,64.6333 55.4874,60.8864 52.0941,53.9962 C41.2986,32.0754 56.8519,12.0511 79,8.03937 C106.801,3.00372 137.702,10.2612 165,14.7407 C175.145,16.4054 188.613,15.3742 196.981,22.3441 C204.729,28.798 201.298,39.5818 207.344,46.9854 C212.05,52.7472 219.203,55.9986 225,60.51 C237.177,69.9871 250.844,83.6703 265,89.8673 C292.131,101.744 309.372,60.1371 338,70.7253 C348.977,74.7851 353.636,85.5437 359.142,95 C368.747,111.496 377.585,132.374 391.005,146 C413.994,169.343 453.866,162.979 474.674,188 C485.967,201.579 481,221.844 481,238 C481,271.573 477.382,305.522 475.09,339 C474.005,354.843 476.262,373.712 471.49,389 C467.071,403.157 450.854,399.838 440,397.454 C418.098,392.645 397.404,391 375,391 C362.441,391 349.624,393.381 347.444,408 C345.544,420.733 352.521,431.576 366,431.907 C390.687,432.511 430.391,422.102 450.999,439.326 C470.908,455.965 463.017,481.789 441,490.96 C425.113,497.577 408.872,497 392,497 L315,497 Z" style="stroke:#000000;stroke-opacity:1;stroke-width:4;stroke-linejoin:miter;stroke-miterlimit:2;stroke-linecap:butt;fill:none;"/>
        </g>
    </g>
</svg>
