<?xml version="1.0"?>
<svg version="1.1" xmlns="http://www.w3.org/2000/svg" xmlns:xlink="http://www.w3.org/1999/xlink" width="516" height="516">
    <desc iVinci="yes" version="4.6" gridStep="20" showGrid="no" snapToGrid="no" codePlatform="0"/>
    <g id="Layer1" name="Layer 1" opacity="1">
        <g id="Shape1">
            <desc shapeID="1" type="0" basicInfo-basicType="0" basicInfo-roundedRectRadius="12" basicInfo-polygonSides="6" basicInfo-starPoints="5" bounding="rect(-242.028,-240.199,484.057,480.398)" text="" font-familyName="" font-pixelSize="20" font-bold="0" font-underline="0" font-alignment="1" strokeStyle="0" markerStart="0" markerEnd="0" shadowEnabled="0" shadowOffsetX="0" shadowOffsetY="2" shadowBlur="4" shadowOpacity="160" blurEnabled="0" blurRadius="4" transform="matrix(1,0,0,1,258.065,259.382)" pers-center="0,0" pers-size="0,0" pers-start="0,0" pers-end="0,0" locked="0" mesh="" flag=""/>
            <path id="shapePath1" d="M415.047,141.993 C400.573,162.541 375.219,185.611 358.09,204 C323.735,240.88 289.483,278.434 252,312.169 C238.147,324.637 223.172,335.741 208,346.558 C203.257,349.939 196.404,357.031 190.015,356.262 C175.437,354.508 186.831,328.708 190.025,322 C195.247,311.037 200.484,300.697 203.981,289 C208.887,272.594 197.731,254.919 181,251.769 C159.175,247.66 132.658,256.021 113,265.079 C101.982,270.156 90.68,282.339 98.8927,294.981 C108.882,310.357 135.955,296.377 144.146,316 C148.967,327.549 143.928,343.043 143.09,355 C140.466,392.439 132.504,429.876 122.29,466 C117.989,481.213 105.999,507.129 85.0401,497.486 C75.1507,492.936 77.1215,472.782 78.5941,464 C82.2455,442.226 91.4959,420.211 97.6921,399 C100.099,390.762 106.177,378.547 102.482,370.005 C99.1352,362.266 86.1865,358.504 79,355.366 C55.8804,345.269 14.2991,336.459 16.0934,305 C16.766,293.206 24.4408,284.929 31.3495,276 C43.0156,260.922 55.0124,246.099 66.6512,231 C89.6423,201.174 111.883,163.405 144,143.018 C162.34,131.376 184.39,127.052 205,121.291 L304,93.5548 C320.17,89.0226 337.327,85.9467 353,79.9244 C360.338,77.1049 368.586,73.7448 373.147,66.9962 C377.548,60.4835 377.798,51.8633 384.094,46.5286 C401.274,31.9723 430.546,27.4198 452,22.7901 C459.878,21.0902 470.034,17.9828 478,19.669 C498.131,23.9302 505.367,40.1603 496.12,58 C485.177,79.1092 460.225,96.6784 444.09,114 C437.186,121.411 423.25,135.559 415.047,141.993 Z" style="stroke:#000000;stroke-opacity:1;stroke-width:4;stroke-linejoin:miter;stroke-miterlimit:2;stroke-linecap:butt;fill:none;"/>
        </g>
    </g>
</svg>
