<?xml version="1.0" standalone="yes"?>
<svg xmlns="http://www.w3.org/2000/svg" width="516" height="176">
<path style="stroke:#000000; stroke-width:4px; fill:none;" d="M193.052,148.111 C184.094,148.262 160.712,147.959 155.247,147.503 C149.781,147.048 131.865,146.137 124.88,145.529 C117.896,144.922 96.7919,142.189 90.2631,140.974 C83.7344,139.76 67.6404,136.42 61.2635,134.446 C54.8867,132.472 38.5707,127.199 33.4084,124.466 C22.1027,119.792 10.5128,114.741 8.3311,101.212 C6.50914,91.9505 7.0601,86.5201 11.3113,80.0645 C15.2529,74.0791 24.1572,67.1571 30.2468,63.9965 C43.2213,57.2626 58.6589,54.4735 72.0174,67.3628 C82.3639,77.3459 92.2513,87.0966 99.1126,94.0589 C106.487,101.542 114.369,110.018 122.872,115.181 C131.374,120.343 141.885,126.399 153.425,129.284 C164.964,132.168 179.388,134.446 191.078,134.142 C202.781,133.838 219.926,132.32 235.109,127.462 C250.292,122.603 262.174,116.682 270.373,110.608 C278.572,104.535 288.38,93.1303 291.781,83.1877 C294.832,74.267 299.246,57.5647 300.809,46.7615 C302.245,36.8337 302.187,31.7179 302.951,24.8243 C303.557,19.3627 304.666,14.347 306.166,10.7558 C308.038,6.27308 310.929,5.26421 315.332,5.26421 C319.735,5.26421 322.776,9.05076 323.323,11.6453 C324.555,17.4881 325.461,22.2393 324.95,30.2553 C324.717,33.9044 323.297,43.253 324.277,49.9802 C325.297,56.9763 325.34,63.2416 332.172,75.8435 C339.005,88.4454 347.933,101.573 353.992,109.086 C357.446,113.368 366.556,125.219 370.39,131.257 C372.018,133.821 379.276,144.681 383.296,151.299 C388.119,159.242 392.202,166.152 396.756,167.367 C401.311,168.582 406.569,167.267 413.25,163.32 C419.93,159.372 434.663,152.188 441.278,148.774 C445.137,146.783 451.047,143.43 457.567,134.446 C463.929,125.679 468.624,107.724 471.206,96.9437 C473.787,86.1637 476.359,76.0683 478.771,69.0633 C481.092,62.3233 485.513,54.2836 490.792,49.269 C495.074,45.2016 500.714,41.1783 503.515,36.5194 C506.085,32.2453 508.525,29.1277 507.311,25.4837 C506.096,21.8398 503.515,16.7251 499.125,12.526 C494.469,8.07222 489.273,3.71984 485.022,4.93449 C480.771,6.14913 475.76,15.7144 469.839,29.0755 C463.918,42.4366 464.143,41.5689 461.953,46.2757 C459.623,51.2805 451.346,70.2258 448.006,77.21 C444.665,84.1942 434.492,100.484 427.825,109.086 C423.565,114.583 414.69,123.761 407.914,128.468 C400.997,133.273 389.521,138.242 378.437,138.849 C367.354,139.456 346.553,140.215 337.898,140.823 C329.244,141.43 301.307,143.252 289.313,143.707 C277.318,144.163 247.104,146.289 233.439,145.378 C219.774,144.467 193.052,148.111 193.052,148.111 Z"/>
</svg>
