<?xml version="1.0"?>
<svg version="1.1" xmlns="http://www.w3.org/2000/svg" xmlns:xlink="http://www.w3.org/1999/xlink" width="516" height="251">
    <desc iVinci="yes" version="4.6" gridStep="20" showGrid="no" snapToGrid="no" codePlatform="0"/>
    <g id="Layer1" name="Layer 1" opacity="1">
        <g id="Shape1">
            <desc shapeID="1" type="0" basicInfo-basicType="0" basicInfo-roundedRectRadius="12" basicInfo-polygonSides="6" basicInfo-starPoints="5" bounding="rect(-253.357,-118.306,506.715,236.612)" text="" font-familyName="" font-pixelSize="20" font-bold="0" font-underline="0" font-alignment="1" strokeStyle="0" markerStart="0" markerEnd="0" shadowEnabled="0" shadowOffsetX="0" shadowOffsetY="2" shadowBlur="4" shadowOpacity="160" blurEnabled="0" blurRadius="4" transform="matrix(1,0,0,1,258.962,127.199)" pers-center="0,0" pers-size="0,0" pers-start="0,0" pers-end="0,0" locked="0" mesh="" flag=""/>
            <path id="shapePath1" d="M320,244 C267.378,244 210.691,245 158,245 L116,245 C108.277,245 100.099,245.848 93.0039,242.164 C79.6219,235.218 89.5919,216.769 77.8951,208.742 C70.7761,203.857 57.3072,207.853 49,206.385 C28.9481,202.842 17.945,191.921 9.76929,174 C4.6853,162.856 2.39236,151.87 14.0039,143.649 C18.1866,140.688 23.0634,140.097 28,139.425 C40.8314,137.678 63.6559,135.794 74.9853,142.995 C82.4286,147.725 87.4342,157.867 92.341,165 C100.301,176.572 109.051,199.048 126,196.812 C129.865,196.302 133.108,194.373 135.985,191.812 C153.237,176.458 138.236,164.913 132.563,149 C129.315,139.889 137.659,130.456 146,127.84 C158.448,123.934 175.987,127 189,127 L288,127 C302.475,127 321.082,130.089 335,125.956 C358.862,118.87 347.494,98.727 353.105,82 C354.96,76.4709 358.273,70.6867 364.004,68.6134 C369.743,66.5373 377.459,68.2584 380.821,61.956 C390.269,44.2414 367.352,19.8813 394,11.0895 C397.528,9.92555 401.288,9.2019 405,9.03935 C436.438,7.66266 480.492,15.787 498.557,44 C510.089,62.0104 511,84.2385 511,105 C511,116.205 515.615,141.024 507.581,149.772 C496.557,161.775 493.99,140.624 488.775,136.742 C482.237,131.875 464.401,138.515 459.318,143.684 C454.064,149.026 459.33,158.414 461.72,164 C467.412,177.301 473.874,192.479 468.174,207 C461.704,223.482 445.064,233.295 429,238.645 C395.526,249.795 354.856,244 320,244 Z" style="stroke:#000000;stroke-opacity:1;stroke-width:4;stroke-linejoin:miter;stroke-miterlimit:2;stroke-linecap:butt;fill:none;"/>
        </g>
    </g>
</svg>
