<?xml version="1.0"?>
<svg version="1.1" xmlns="http://www.w3.org/2000/svg" xmlns:xlink="http://www.w3.org/1999/xlink" width="516" height="443">
    <desc iVinci="yes" version="4.6" gridStep="20" showGrid="no" snapToGrid="no" codePlatform="0"/>
    <g id="Layer1" name="Layer 1" opacity="1">
        <g id="Shape1">
            <desc shapeID="1" type="0" basicInfo-basicType="0" basicInfo-roundedRectRadius="12" basicInfo-polygonSides="6" basicInfo-starPoints="5" bounding="rect(-248.83,-212.862,497.661,425.723)" text="" font-familyName="" font-pixelSize="20" font-bold="0" font-underline="0" font-alignment="1" strokeStyle="0" markerStart="0" markerEnd="0" shadowEnabled="0" shadowOffsetX="0" shadowOffsetY="2" shadowBlur="4" shadowOpacity="160" blurEnabled="0" blurRadius="4" transform="matrix(1,0,0,1,261.908,217.882)" pers-center="0,0" pers-size="0,0" pers-start="0,0" pers-end="0,0" locked="0" mesh="" flag=""/>
            <path id="shapePath1" d="M394.127,278.969 C383.855,271.046 368.349,259.15 356,254.799 C342.037,249.88 322.717,250 308,250 C294.301,250 280.104,250.479 268,257.891 C245.774,271.502 238.999,318.55 205,304.196 C171.63,290.107 160.196,249.186 133.996,227.329 C119.523,215.255 101.43,230.789 85,222.573 C73.2351,216.689 64.6009,202.666 57.6173,192 C42.7527,169.298 23.3904,146.759 14.1049,121 C10.3328,110.536 17.7676,98.5232 23.2168,90 C37.5916,67.5161 55.1628,47.4495 72,26.9105 C78.9027,18.4902 88.4379,3.56888 101,5.13425 C109.463,6.18878 111.049,14.4245 113.873,21 C118.83,32.5434 124.51,46.5287 136,52.7099 C149.105,59.7595 165.944,62.2087 177.961,70.8395 C190.109,79.5648 195.047,95.137 210,100.87 C222.887,105.811 238.436,104.773 252,106.576 C258.279,107.41 263.677,106.321 269,110.483 C279.257,118.503 286.473,130.57 294.012,141 C311.941,165.808 329.067,196.079 354,214.521 C370.491,226.718 392.101,234.337 412,238.64 C431.667,242.893 448.936,242.486 459.901,262 C480.844,299.27 487.909,342.517 502.804,382 C506.702,392.332 516.15,418.312 506.606,427.525 C497.271,436.537 485.37,424.656 481.664,416 C470.465,389.84 468.822,357.761 452.229,334 C442.841,320.555 429.996,309.537 417.91,298.59 C412.122,293.347 399.463,283.435 394.127,278.969 Z" style="stroke:#000000;stroke-opacity:1;stroke-width:4;stroke-linejoin:miter;stroke-miterlimit:2;stroke-linecap:butt;fill:none;"/>
        </g>
    </g>
</svg>
