<?xml version="1.0"?>
<svg version="1.1" xmlns="http://www.w3.org/2000/svg" xmlns:xlink="http://www.w3.org/1999/xlink" width="516" height="450">
    <desc iVinci="yes" version="4.6" gridStep="20" showGrid="no" snapToGrid="no" codePlatform="0"/>
    <g id="Layer1" name="Layer 1" opacity="1">
        <g id="Shape1">
            <desc shapeID="1" type="0" basicInfo-basicType="0" basicInfo-roundedRectRadius="12" basicInfo-polygonSides="6" basicInfo-starPoints="5" bounding="rect(-250.529,-219.026,501.057,438.052)" text="" font-familyName="" font-pixelSize="20" font-bold="0" font-underline="0" font-alignment="1" strokeStyle="0" markerStart="0" markerEnd="0" shadowEnabled="0" shadowOffsetX="0" shadowOffsetY="2" shadowBlur="4" shadowOpacity="160" blurEnabled="0" blurRadius="4" transform="matrix(1,0,0,1,257.9,225.799)" pers-center="0,0" pers-size="0,0" pers-start="0,0" pers-end="0,0" locked="0" mesh="" flag=""/>
            <path id="shapePath1" d="M235,377 C204.639,382.041 167.346,392.885 137,400.374 C121.15,404.286 104.535,410.489 88,408.829 C63.5902,406.379 43.2249,374.298 60.3904,353.015 C68.1321,343.417 90.9829,340.837 93.2963,357 C94.5109,365.486 86.0903,375.919 91.7423,383.867 C104.072,401.203 119.912,371.287 120.675,361 C122.045,342.528 99.9701,323.595 89.1304,311 C73.4447,292.775 53.3318,276.113 40.108,256 C31.6175,243.086 27.5757,225.46 22.3048,211 C17.6013,198.097 12.3967,185.317 8.88426,172 C7.58955,167.091 5.40161,160.246 11.1088,157.194 C21.6075,151.578 39.0007,171.473 44.8264,178 C61.3759,196.542 72.8474,222.062 86.3079,243 C93.2206,253.753 98.7913,265.721 111,271.138 C142.482,285.108 167.325,272.564 183.114,243 C192.016,226.332 197.645,202.655 220,201.09 C232.661,200.203 245.636,204.591 253.39,215 C263.911,229.121 267.757,264.336 290.999,243.816 C298.479,237.211 307.996,225.842 305.467,215 C302.803,203.583 292.24,192.138 286.427,182 C269.911,153.191 251.879,124.998 234.054,97 C226.796,85.5992 219.557,63.9912 207.957,56.6188 C202.036,52.856 197.299,60.2602 193.83,63.9854 C187.339,70.9569 179.47,74.3373 171.004,68.3511 C150.034,53.524 156.506,18.099 180,9.69983 C223.848,-5.97614 247.519,45.0603 267,74 C325.511,160.92 384.836,247.399 442.329,335 C459.599,361.313 476.241,388.288 494.424,414 C498.326,419.517 512.572,434.658 507.254,441.656 C501.868,448.742 493.489,442.342 489,437.985 C476.482,425.835 465.759,411.692 455,398 C444.27,384.345 434.339,370.057 424.152,356 C420.154,350.483 416.535,341.699 409.985,338.844 C396.986,333.178 373.038,344.157 360,347.374 C318.558,357.602 277.091,370.011 235,377 Z" style="stroke:#000000;stroke-opacity:1;stroke-width:4;stroke-linejoin:miter;stroke-miterlimit:2;stroke-linecap:butt;fill:none;"/>
        </g>
    </g>
</svg>
