<?xml version="1.0"?>
<svg version="1.1" xmlns="http://www.w3.org/2000/svg" xmlns:xlink="http://www.w3.org/1999/xlink" width="516" height="299">
    <desc iVinci="yes" version="4.6" gridStep="20" showGrid="no" snapToGrid="no" codePlatform="0"/>
    <g id="Layer1" name="Layer 1" opacity="1">
        <g id="Shape1">
            <desc shapeID="1" type="0" basicInfo-basicType="0" basicInfo-roundedRectRadius="12" basicInfo-polygonSides="6" basicInfo-starPoints="5" bounding="rect(-252.464,-144.34,504.927,288.681)" text="" font-familyName="" font-pixelSize="20" font-bold="0" font-underline="0" font-alignment="1" strokeStyle="0" markerStart="0" markerEnd="0" shadowEnabled="0" shadowOffsetX="0" shadowOffsetY="2" shadowBlur="4" shadowOpacity="160" blurEnabled="0" blurRadius="4" transform="matrix(1,0,0,1,257.567,150.546)" pers-center="0,0" pers-size="0,0" pers-start="0,0" pers-end="0,0" locked="0" mesh="" flag=""/>
            <path id="shapePath1" d="M286,257 C220.99,257 152.969,259 88,259 C65.2537,259 31.1039,265.404 13.054,247.895 C-5.29803,230.093 12.756,202.83 20.9784,185 C39.8355,144.11 62.2397,105.39 87.2577,68 C97.3111,52.9749 106.341,34.739 121,23.598 C144.579,5.67755 176.694,0.842743 204,12.6767 C216.295,18.0052 226.844,26.8928 238,34.135 C273.811,57.383 308.341,82.9928 343,107.988 C359.024,119.545 375.248,130.838 391,142.769 C398.16,148.192 406.908,153.551 410.811,162 C418.508,178.661 402.269,198.822 385,197.96 C375.577,197.49 366.695,190.219 359,185.37 C342.755,175.132 324.414,160.269 305,157.329 C298.85,156.397 292.007,158.998 286,160.2 C263.849,164.631 243.24,177.665 221,180.791 C194.159,184.564 170.032,165.44 152.039,147.91 C144.643,140.705 138.237,132.583 137.329,122 C135.853,104.799 151.401,90.3667 168,91.0401 C183.98,91.6884 195.829,108.162 209,115.714 C218.123,120.945 229.837,119.863 240,120.83 C248.393,121.629 261.246,122.299 268.96,118.427 C275.602,115.094 278.132,106.046 273.566,100.039 C266.726,91.0393 254.376,85.3811 245,79.4715 C218.347,62.6728 177.957,31.5712 146,51.5586 C118.359,68.8465 107.893,102.796 92.9753,130 C83.7494,146.825 75.2532,164.024 66.3179,181 C61.3549,190.429 55.5985,201.163 59.8897,211.999 C63.0708,220.032 74.4714,223.325 81.9992,219.543 C97.6821,211.664 101.183,191.998 123,198.57 C139.919,203.667 150.893,220.896 168,225.1 C193.64,231.401 220.813,230.893 247,232.039 C279.543,233.464 312.323,235.392 345,233.961 C372.733,232.746 400.341,227.984 428,226.09 C452.756,224.394 507.752,214.516 509.957,253 C511.403,278.243 491.343,295.474 467,294.871 C439.462,294.189 415.998,267.496 390,259.508 C377.913,255.795 364.479,257 352,257 L286,257 Z" style="stroke:#000000;stroke-opacity:1;stroke-width:4;stroke-linejoin:miter;stroke-miterlimit:2;stroke-linecap:butt;fill:none;"/>
        </g>
    </g>
</svg>
