<?xml version="1.0"?>
<svg version="1.1" xmlns="http://www.w3.org/2000/svg" xmlns:xlink="http://www.w3.org/1999/xlink" width="516" height="483">
    <desc iVinci="yes" version="4.6" gridStep="20" showGrid="no" snapToGrid="no" codePlatform="0"/>
    <g id="Layer1" name="Layer 1" opacity="1">
        <g id="Shape1">
            <desc shapeID="1" type="0" basicInfo-basicType="0" basicInfo-roundedRectRadius="12" basicInfo-polygonSides="6" basicInfo-starPoints="5" bounding="rect(-252.423,-237.798,504.846,475.595)" text="" font-familyName="" font-pixelSize="20" font-bold="0" font-underline="0" font-alignment="1" strokeStyle="0" markerStart="0" markerEnd="0" shadowEnabled="0" shadowOffsetX="0" shadowOffsetY="2" shadowBlur="4" shadowOpacity="160" blurEnabled="0" blurRadius="4" transform="matrix(1,0,0,1,256.343,241.984)" pers-center="0,-0.00050354" pers-size="642.913,0" pers-start="0,0" pers-end="0,0" locked="0" mesh="" flag=""/>
            <path id="shapePath1" d="M439,185 C428.862,187.287 413.833,192.703 404,195.576 C393.9,198.527 381.761,200.516 373,206.649 C356.834,217.966 345.629,241.095 334.291,257 C313.081,286.751 292.674,317.064 271.72,347 C262.554,360.095 254.402,375.028 243.816,386.999 C233.003,399.227 216.556,403.316 202,409.424 C173.178,421.519 144.269,434.103 115,445.05 C93.8363,452.966 72.7423,461.765 52,470.654 C45.4112,473.478 33.3984,481.736 26.0008,479.356 C20.3977,477.554 17.5536,470.674 14.8465,466 C7.92992,454.059 -0.714142,444.77 6.86499,431 C14.0749,417.901 23.7038,403.81 34.0394,393 C41.4826,385.215 50.679,379.361 57.5355,371 C67.3778,358.998 73.7093,342.654 85.0154,332.104 C92.2946,325.312 102.722,322.537 109.772,315.532 C116.185,309.16 110.382,298.813 117.144,292.148 C122.392,286.976 129.921,290.113 136,291.975 C147.053,295.361 157.949,299.24 169,302.652 C174.231,304.267 180.339,305.581 184.895,301.696 C197.454,290.987 188.2,270.691 198.419,259.214 C204.5,252.384 217.173,251.702 225,247.123 C234.154,241.769 236.199,232.262 243.105,225.043 C254.518,213.113 279.889,207.698 283.427,189 C284.773,181.89 278.181,176.799 277.758,170 C277.298,162.624 280.801,155.203 281.791,148 C282.724,141.209 280.51,132.418 278.304,126 C276.119,119.643 274.135,112.521 270.211,107 C267.328,102.945 262.151,99.2787 261.579,94 C261.058,89.199 264.354,83.2376 266.309,79 C269.505,72.0749 274.387,59.6517 282.004,56.7431 C288.108,54.412 295.854,58.1182 302,58.8295 C315.412,60.3818 325.794,59.3868 338,53.24 C343.53,50.4549 352.17,45.474 351.262,38.0185 C350.424,31.1332 340.095,31.2533 335,31.6134 C325.004,32.3198 314.998,31.6015 305,32.0394 C298.603,32.3195 287.699,34.3692 287,30.8438 C286.357,27.6001 298.038,29.0824 304,27.3619 C308.665,26.0157 312.227,22.4014 317,21.3287 C330.088,18.3875 342.773,19.8171 356,18.9105 C376.668,17.4937 397.503,12.7478 418,9.72839 C429.773,7.99411 451.118,0.141968 461.985,6.85724 C471.154,12.5236 473.674,28.4281 476.659,38 C485.33,65.8102 491.871,94.3386 501.001,122 C504.332,132.094 512.983,149.03 506.297,158.996 C501.472,166.188 492.756,168.168 485,170.656 C469.761,175.544 453.942,179.279 439,185 Z" style="stroke:#000000;stroke-opacity:1;stroke-width:4;stroke-linejoin:miter;stroke-miterlimit:2;stroke-linecap:butt;fill:none;"/>
        </g>
    </g>
</svg>
