<?xml version="1.0"?>
<svg version="1.1" xmlns="http://www.w3.org/2000/svg" xmlns:xlink="http://www.w3.org/1999/xlink" width="516" height="206">
    <desc iVinci="yes" version="4.6" gridStep="20" showGrid="no" snapToGrid="no" codePlatform="0"/>
    <g id="Layer1" name="Layer 1" opacity="1">
        <g id="Shape1">
            <desc shapeID="1" type="0" basicInfo-basicType="0" basicInfo-roundedRectRadius="12" basicInfo-polygonSides="6" basicInfo-starPoints="5" bounding="rect(-247.64,-92.7096,495.281,185.419)" text="" font-familyName="" font-pixelSize="20" font-bold="0" font-underline="0" font-alignment="1" strokeStyle="0" markerStart="0" markerEnd="0" shadowEnabled="0" shadowOffsetX="0" shadowOffsetY="2" shadowBlur="4" shadowOpacity="160" blurEnabled="0" blurRadius="4" transform="matrix(1,0,0,1,258.453,103.769)" pers-center="0,0" pers-size="0,0" pers-start="0,0" pers-end="0,0" locked="0" mesh="" flag=""/>
            <path id="shapePath1" d="M150.784,82 C199.839,82 251.982,83 301,83 C321.726,83 347.883,87.2976 367.995,82.3156 C381.378,79.0007 367.52,55.1284 386,52.2137 C404.57,49.2848 415.757,67.2496 411.443,84 C407.476,99.4043 392.086,101.44 379,103.999 C347.578,110.143 315.566,113.492 284,118.753 C267.957,121.427 242.824,131.148 255.225,152 C266.982,171.77 297.682,162.542 316,160.285 C337.217,157.671 358.75,155.08 380,153.104 C394.822,151.726 412.926,152.216 427,147.035 C439.632,142.385 455.051,125.69 461.352,114 C467.339,102.891 465.481,72.8226 458.992,62 C452.563,51.2782 440.041,44.3621 442.213,30 C444.562,14.4678 465.115,5.70164 477.999,14.652 C485.132,19.6069 488.18,27.2309 491.189,35 C498.263,53.2618 507.527,78.3255 505.907,98 C505.335,104.935 499.939,110.078 499.39,117 C498.039,134.051 505.414,148.692 490.826,162.7 C474.932,177.962 443.573,175.012 423,176.925 C373.674,181.511 324.412,187.626 275,191.09 C257.079,192.346 236.895,198.523 219,195.787 C198.673,192.679 195.277,161.097 175,159.105 C164.931,158.116 154.875,161.044 145,162.576 C129.027,165.053 112.959,167.098 97,169.59 C86.8079,171.182 75.2727,174.887 65,172.239 C55.5568,169.805 50.4323,162.412 44.8735,155 C33.8373,140.285 19.308,124.08 12.1991,107 C8.72665,98.6572 11.9419,89.2248 20.0039,84.9198 C30.8593,79.123 48.0854,82 60,82 L150.784,82 Z" style="stroke:#000000;stroke-opacity:1;stroke-width:4;stroke-linejoin:miter;stroke-miterlimit:2;stroke-linecap:butt;fill:none;"/>
        </g>
    </g>
</svg>
