<?xml version="1.0"?>
<svg version="1.1" xmlns="http://www.w3.org/2000/svg" xmlns:xlink="http://www.w3.org/1999/xlink" width="516" height="407">
    <desc iVinci="yes" version="4.6" gridStep="20" showGrid="no" snapToGrid="no" codePlatform="0"/>
    <g id="Layer1" name="Layer 1" opacity="1">
        <g id="Shape1">
            <desc shapeID="1" type="0" basicInfo-basicType="0" basicInfo-roundedRectRadius="12" basicInfo-polygonSides="6" basicInfo-starPoints="5" bounding="rect(-250.411,-193.889,500.822,387.777)" text="" font-familyName="" font-pixelSize="20" font-bold="0" font-underline="0" font-alignment="1" strokeStyle="0" markerStart="0" markerEnd="0" shadowEnabled="0" shadowOffsetX="0" shadowOffsetY="2" shadowBlur="4" shadowOpacity="160" blurEnabled="0" blurRadius="4" transform="matrix(1,0,0,1,260.629,204.698)" pers-center="0,0" pers-size="0,0" pers-start="0,0" pers-end="0,0" locked="0" mesh="" flag=""/>
            <path id="shapePath1" d="M231.161,58.0292 C214.36,64.8622 191.32,69.6089 174,74.4244 C142.895,83.0725 111.643,92.1202 81,102.258 C68.7431,106.313 56.2239,109.557 44,113.667 C39.9777,115.02 33.3306,116.344 30.9522,120.225 C27.5567,125.764 35.1404,131.596 37.4282,136 C40.3512,141.626 40.335,149.807 39.9105,156 C39.3424,164.288 37.515,172.968 32.892,180 C28.7009,186.375 22.0833,190.174 17.3904,196.015 C8.3015,207.327 8.10762,221.883 15.3519,234 C26.6362,252.874 59.8462,255.053 66.3503,277 C73.3395,300.583 22.5254,298.027 39.9938,326 C48.6492,339.86 66.0468,345.19 80,351.781 C111.523,366.671 144.075,385.677 178,394.37 C191.267,397.77 207.155,401.614 220,394.865 C242.265,383.167 220.781,359.973 208,350.478 C194.457,340.417 177.517,335.527 165,323.91 C141.724,302.307 145.271,268.889 169,249.329 C187.956,233.703 215.809,244.216 237,248.79 C293.972,261.088 350.029,277.474 407,289.79 C422.085,293.051 436.936,297.26 452,300.65 C459.116,302.252 467.458,304.862 473.999,300.347 C486.591,291.658 486.226,276.013 477.547,265 C462.474,245.873 439.538,227.001 430.465,204 C426.467,193.866 428.595,183.447 429.845,173 C432.233,153.042 432.966,130.16 439.225,111 C442.326,101.504 455.089,96.1044 463.985,101.742 C476,109.357 483.823,138.631 502.907,123.291 C505.342,121.333 507.197,118.846 508.471,115.999 C513.512,104.731 510.197,92.0855 506.515,81 C497.119,52.7074 478.216,31.4044 451,18.9197 C418.63,4.07089 390.453,12.5432 358,21.1157 C316.831,31.9904 271.712,45.0629 231.161,58.0292 Z" style="stroke:#000000;stroke-opacity:1;stroke-width:4;stroke-linejoin:miter;stroke-miterlimit:2;stroke-linecap:butt;fill:none;"/>
        </g>
    </g>
</svg>
