<?xml version="1.0"?>
<svg version="1.1" xmlns="http://www.w3.org/2000/svg" xmlns:xlink="http://www.w3.org/1999/xlink" width="516" height="389">
    <desc iVinci="yes" version="4.6" gridStep="20" showGrid="no" snapToGrid="no" codePlatform="0"/>
    <g id="Layer1" name="Layer 1" opacity="1">
        <g id="Shape1">
            <desc shapeID="1" type="0" basicInfo-basicType="0" basicInfo-roundedRectRadius="12" basicInfo-polygonSides="6" basicInfo-starPoints="5" bounding="rect(-251.288,-185.822,502.577,371.645)" text="" font-familyName="" font-pixelSize="20" font-bold="0" font-underline="0" font-alignment="1" strokeStyle="0" markerStart="0" markerEnd="0" shadowEnabled="0" shadowOffsetX="0" shadowOffsetY="2" shadowBlur="4" shadowOpacity="160" blurEnabled="0" blurRadius="4" transform="matrix(1,0,0,1,257.946,192.824)" pers-center="0,0" pers-size="0,0" pers-start="0,0" pers-end="0,0" locked="0" mesh="" flag=""/>
            <path id="shapePath1" d="M499.752,211.617 C501.069,178.312 505.582,139.273 507.039,106 C507.615,92.8633 511.971,77.5526 506.532,65 C500.645,51.4168 482.238,45.8282 470,39.7523 C440.399,25.0567 389.042,-13.6263 360.34,21.0146 C350.895,32.4144 357.962,57.1496 358.91,71 C361.651,111.022 368.701,153.42 333,181.332 C327.252,185.825 320.827,189.154 314,191.68 C305.1,194.973 295.478,196.099 286,194.699 C273.17,192.804 260.957,182.167 269.13,169 C279.988,151.505 292.597,138.012 299.028,118 C302.096,108.453 305.631,99.2442 296.956,91.4391 C291.146,86.2114 282.907,78.7413 275,77.3295 C265.073,75.5568 255.946,82.4937 248,87.4707 C235.479,95.3134 222.207,103.991 207,104.791 C199.235,105.199 191.421,101.655 184,99.8843 C172.09,97.0423 160.182,95.2711 148,94.1705 C121.82,91.8054 97.1753,101.845 71,93.2508 C56.1473,88.3744 43.8155,75.1748 31,66.6196 C21.1051,60.0141 8.84857,64.4227 7.18825,77 C2.99646,108.754 24.2947,120.087 48,134.011 C86.1161,156.4 124.656,178.14 163,200.15 C243.526,246.372 323.108,295.338 405,339.069 C423.509,348.953 442.17,359.54 460,370.576 C465.735,374.125 475.937,381.915 482.787,377.141 C493.353,369.779 490.329,346.102 491.09,335 C493.79,295.568 499.752,251.152 499.752,211.617 Z" style="stroke:#000000;stroke-opacity:1;stroke-width:4;stroke-linejoin:miter;stroke-miterlimit:2;stroke-linecap:butt;fill:none;"/>
        </g>
    </g>
</svg>
