<?xml version="1.0"?>
<svg version="1.1" xmlns="http://www.w3.org/2000/svg" xmlns:xlink="http://www.w3.org/1999/xlink" width="516" height="334">
    <desc iVinci="yes" version="4.6" gridStep="20" showGrid="no" snapToGrid="no" codePlatform="0"/>
    <g id="Layer1" name="Layer 1" opacity="1">
        <g id="Shape1">
            <desc shapeID="1" type="0" basicInfo-basicType="0" basicInfo-roundedRectRadius="12" basicInfo-polygonSides="6" basicInfo-starPoints="5" bounding="rect(-248.806,-157.858,497.613,315.717)" text="" font-familyName="" font-pixelSize="20" font-bold="0" font-underline="0" font-alignment="1" strokeStyle="0" markerStart="0" markerEnd="0" shadowEnabled="0" shadowOffsetX="0" shadowOffsetY="2" shadowBlur="4" shadowOpacity="160" blurEnabled="0" blurRadius="4" transform="matrix(1,0,0,1,257.713,172.171)" pers-center="0,0" pers-size="0,0" pers-start="0,0" pers-end="0,0" locked="0" mesh="" flag=""/>
            <path id="shapePath1" d="M341.883,298.286 C311.829,300.745 276.413,317.69 247,324.424 C238.399,326.394 222.99,333.737 215.004,327.682 C198.922,315.489 186.791,290.584 175.495,274 C160.685,252.256 144.57,231.459 132.424,208 C110.709,166.059 95.9727,123.707 65.385,86.9961 C50.9681,69.6934 33.8455,54.9215 18.0008,39 C12.3494,33.3212 2.40379,23.5732 15.0008,19.6697 C42.6335,11.1071 76.9132,14.3676 105,18.7037 C154.309,26.3161 203.191,37.5984 253,41.0895 C272.152,42.4319 291.978,42.0339 311,44.2855 C317.658,45.0736 327.176,45.9319 326.569,55 C325.747,67.2924 314.047,80.1416 305,87.3341 C281.919,105.684 255.252,108.053 227,103.561 C210.488,100.935 193.866,95.2943 177,96.0394 C172.556,96.2357 168.044,97.1684 164,99.044 C136.25,111.913 146.968,140.011 158.427,160 C165.285,171.961 172.098,184.657 179.915,195.996 C191.11,212.237 215.442,208.469 227.575,195.829 C238.611,184.333 248.909,172.361 264,165.879 C278.451,159.672 291.902,161.267 307,159.83 C341.009,156.594 376.821,157 411,157 C431.228,157 460.762,150.214 479,161.075 C485.098,164.706 488.445,170.688 491.149,177 C498.22,193.51 514.67,228.101 501.66,243.996 C487.05,261.846 456.224,267.661 435,273.285 C405.863,281.006 370.4,288.555 341.883,298.286 Z" style="stroke:#000000;stroke-opacity:1;stroke-width:4;stroke-linejoin:miter;stroke-miterlimit:2;stroke-linecap:butt;fill:none;"/>
        </g>
    </g>
</svg>
