<?xml version="1.0" standalone="yes"?>
<svg xmlns="http://www.w3.org/2000/svg" width="516" height="234">
<path style="stroke:#000000; stroke-width:4px; fill:none;" d="M 386.042969,220.953125 C 363.677979,220.953125 334.648010,219.729996 313.000000,213.279007 C 289.058990,206.145996 265.536011,196.692001 242.000000,188.307999 C 232.785004,185.024994 223.731003,180.084000 214.000000,178.468002 C 202.147995,176.501007 199.210007,191.848007 188.000000,192.774994 C 162.352005,194.897995 132.453003,185.324005 107.000000,182.156006 C 94.998199,180.662003 78.900398,175.660004 67.000000,178.393997 C 60.604801,179.863998 56.645599,185.988007 51.000000,188.949997 C 41.994400,193.675003 22.652399,191.128998 15.015400,184.671005 C 1.722380,173.427994 -0.343491,129.966995 17.000799,121.593002 C 29.315001,115.647003 45.999199,121.390999 59.000000,121.960999 C 83.834999,123.047997 117.984001,115.405998 136.714996,97.674400 C 154.289993,81.036102 165.766006,53.902199 177.576004,33.000000 C 183.085999,23.247499 189.134003,10.615400 202.000000,10.047100 C 215.778000,9.438450 227.792999,19.209200 238.000000,27.209900 C 245.063995,32.747002 252.817001,37.712799 258.239014,45.000000 C 264.811005,53.831200 267.858002,64.687202 275.299988,72.959900 C 283.856995,82.471497 300.856995,92.821602 313.000000,96.895103 C 320.970001,99.568604 331.756012,98.925903 337.907013,92.895103 C 343.936005,86.982803 346.614990,77.916298 356.000000,76.333298 C 362.410004,75.252197 369.697998,77.847099 376.000000,78.918999 C 391.510986,81.556900 407.285004,85.833298 423.000000,86.910500 C 441.440002,88.174500 469.395996,80.974503 485.996002,90.247704 C 493.649994,94.523201 496.424988,102.065002 498.977997,110.000000 C 504.079987,125.855003 512.890991,147.287003 491.000000,154.751999 C 479.742004,158.589996 467.205994,156.548996 456.000000,159.789001 C 451.838989,160.992004 446.457001,164.020004 446.457001,168.996994 C 446.457001,175.699997 456.199005,178.742996 461.000000,181.261993 C 472.488007,187.287994 497.117004,196.067001 501.837006,209.000000 C 505.785004,219.817001 490.578003,226.417999 482.000000,225.815994 C 450.106995,223.574005 418.006989,221.000000 386.000000,221.000000"/>
</svg>
