<?xml version="1.0"?>
<svg version="1.1" xmlns="http://www.w3.org/2000/svg" xmlns:xlink="http://www.w3.org/1999/xlink" width="516" height="234">
    <desc iVinci="yes" version="4.6" gridStep="20" showGrid="no" snapToGrid="no" codePlatform="0"/>
    <g id="Layer1" name="Layer 1" opacity="1">
        <g id="Shape1">
            <desc shapeID="1" type="0" basicInfo-basicType="0" basicInfo-roundedRectRadius="12" basicInfo-polygonSides="6" basicInfo-starPoints="5" bounding="rect(-250.339,-107.912,500.677,215.824)" text="" font-familyName="" font-pixelSize="20" font-bold="0" font-underline="0" font-alignment="1" strokeStyle="0" markerStart="0" markerEnd="0" shadowEnabled="0" shadowOffsetX="0" shadowOffsetY="2" shadowBlur="4" shadowOpacity="160" blurEnabled="0" blurRadius="4" transform="matrix(1,0,0,1,254.864,117.938)" pers-center="0,0" pers-size="0,0" pers-start="0,0" pers-end="0,0" locked="0" mesh="" flag=""/>
            <path id="shapePath1" d="M386,221 C360.836,221 330.189,218.667 306,210.971 C284.49,204.128 263.269,195.884 242,188.308 C232.785,185.025 223.731,180.084 214,178.468 C202.148,176.501 199.21,191.848 188,192.775 C178.46,193.565 167.451,190.633 158,189.271 C140.636,186.769 123.348,184.542 106,182.13 C94.3498,180.511 78.5888,175.732 67,178.394 C60.6048,179.864 56.6456,185.988 51,188.95 C42.0737,193.633 22.5924,191.079 15.0154,184.671 C1.77136,173.47 -0.374634,129.927 17.0008,121.593 C29.2218,115.732 46.1173,121.397 59,121.961 C83.9223,123.052 117.921,115.466 136.715,97.6744 C153.959,81.3492 165.653,54.5882 177.138,34 C182.748,23.9446 188.671,10.5385 202,10.044 C221.908,9.30542 248.812,31.6891 259.56,47 C265.175,54.9985 268.105,64.4301 274.465,71.9853 C284.538,83.9535 307.433,97.3093 322,102.931 C345.859,112.139 336.444,79.551 352.001,76.3441 C360.164,74.6613 369.037,77.6608 377,79.1968 C392.053,82.1005 407.684,85.8607 423,86.9105 C441.683,88.1911 469.027,81.1426 485.996,90.1975 C493.693,94.3047 496.449,102.139 498.978,110 C503.904,125.31 512.938,146.583 492,154.34 C480.485,158.606 467.54,156.453 456,159.789 C451.839,160.992 446.457,164.02 446.457,168.997 C446.457,175.783 457.048,179.585 462,182.117 C473.541,188.016 497.144,196.063 501.977,209 C505.97,219.688 490.381,226.394 482,225.816 C450.099,223.613 418.013,221 386,221 Z" style="stroke:#000000;stroke-opacity:1;stroke-width:4;stroke-linejoin:miter;stroke-miterlimit:2;stroke-linecap:butt;fill:none;"/>
        </g>
    </g>
</svg>
