<?xml version="1.0"?>
<svg version="1.1" xmlns="http://www.w3.org/2000/svg" xmlns:xlink="http://www.w3.org/1999/xlink" width="516" height="230">
    <desc iVinci="yes" version="4.6" gridStep="20" showGrid="no" snapToGrid="no" codePlatform="0"/>
    <g id="Layer1" name="Layer 1" opacity="1">
        <g id="Shape1">
            <desc shapeID="1" type="0" basicInfo-basicType="0" basicInfo-roundedRectRadius="12" basicInfo-polygonSides="6" basicInfo-starPoints="5" bounding="rect(-250.145,-106.484,500.291,212.968)" text="" font-familyName="" font-pixelSize="20" font-bold="0" font-underline="0" font-alignment="1" strokeStyle="0" markerStart="0" markerEnd="0" shadowEnabled="0" shadowOffsetX="0" shadowOffsetY="2" shadowBlur="4" shadowOpacity="160" blurEnabled="0" blurRadius="4" transform="matrix(1,0,0,1,254.087,115.665)" pers-center="0,0" pers-size="0,0" pers-start="0,0" pers-end="0,0" locked="0" mesh="" flag=""/>
            <path id="shapePath1" d="M381,217 C357.817,216.005 326.372,215.663 304,208.495 C283.626,201.967 263,194.586 243,186.935 C232.495,182.917 221.264,176.883 210,175.341 C198.092,173.711 195.483,189.27 184,189.737 C171.62,190.24 158.094,186.563 146,184.31 C132.429,181.782 118.59,181.184 105,179.134 C93.6143,177.417 77.3063,172.802 66,175.394 C59.225,176.948 55.1382,183.575 49,186.431 C39.4721,190.864 21.7627,187.311 14.0432,180.66 C0.796692,169.249 -0.614883,127.326 17.0008,119.275 C30.608,113.056 52.4483,119.323 67,119.961 C89.3191,120.938 120.947,109.378 136.826,93.7145 C152.845,77.914 164.126,51.6902 174.77,32 C179.92,22.4728 186.39,9.34911 199,9.18288 C217.835,8.93459 245.411,31.1392 255.402,46 C260.353,53.3636 262.714,61.9657 268.379,68.9992 C278.54,81.6143 302.095,95.3877 317,101.637 C339.757,111.177 331.573,76.8652 347,74.2323 C356.088,72.6812 367.258,76.8965 376,78.9606 C390.119,82.2944 405.533,84.9198 420,85.9105 C436.935,87.0702 460.235,81.1065 476,87.8804 C487.626,92.8758 490.162,106.053 493.656,117 C500.947,139.847 508.082,170.323 501.844,194 C499.581,202.591 496.611,213.012 488.996,218.348 C479.987,224.662 468.068,221.261 458,221.015 C432.291,220.385 406.683,217 381,217 Z" style="stroke:#000000;stroke-opacity:1;stroke-width:4;stroke-linejoin:miter;stroke-miterlimit:2;stroke-linecap:butt;fill:none;"/>
        </g>
    </g>
</svg>
