<?xml version="1.0"?>
<svg version="1.1" xmlns="http://www.w3.org/2000/svg" xmlns:xlink="http://www.w3.org/1999/xlink" width="516" height="230">
    <desc iVinci="yes" version="4.6" gridStep="20" showGrid="no" snapToGrid="no" codePlatform="0"/>
    <g id="Layer1" name="Layer 1" opacity="1">
        <g id="Shape1">
            <desc shapeID="1" type="0" basicInfo-basicType="0" basicInfo-roundedRectRadius="12" basicInfo-polygonSides="6" basicInfo-starPoints="5" bounding="rect(-250.148,-106.52,500.297,213.04)" text="" font-familyName="" font-pixelSize="20" font-bold="0" font-underline="0" font-alignment="1" strokeStyle="0" markerStart="0" markerEnd="0" shadowEnabled="0" shadowOffsetX="0" shadowOffsetY="2" shadowBlur="4" shadowOpacity="160" blurEnabled="0" blurRadius="4" transform="matrix(1,0,0,1,254.085,115.701)" pers-center="0,0" pers-size="0,0" pers-start="0,0" pers-end="0,0" locked="0" mesh="" flag=""/>
            <path id="shapePath1" d="M381,217 C357.817,216.005 326.372,215.663 304,208.495 C283.626,201.967 263,194.586 243,186.935 C232.495,182.917 221.264,176.883 210,175.341 C198.092,173.711 195.483,189.27 184,189.737 C171.178,190.258 157.56,186.198 145,184.145 C130.396,181.758 115.546,181.167 101,178.615 C90.9339,176.849 76.037,173.093 66,175.394 C59.225,176.948 55.1382,183.575 49,186.431 C39.4721,190.864 21.7627,187.311 14.0432,180.66 C0.769485,169.226 -0.599777,127.292 17,119.275 C30.627,113.067 52.4332,119.323 67,119.961 C89.3191,120.938 120.947,109.378 136.826,93.7145 C152.845,77.914 164.126,51.6902 174.77,32 C179.92,22.4728 186.39,9.34911 199,9.18288 C217.835,8.93459 245.411,31.1392 255.402,46 C260.601,53.7329 262.967,62.803 269.21,69.9961 C278.208,80.3643 294.354,89.4611 307,94.6481 C315.94,98.3151 327.049,97.3492 333.79,89.956 C338.233,85.0829 340.753,76.5657 348.004,75.2284 C357.395,73.4963 366.97,76.9894 376,78.8804 C390.352,81.8861 405.368,84.9085 420,85.9105 C437.089,87.0807 461.293,80.8498 477,88.3279 C487.851,93.494 490.315,106.532 493.656,117 C501.039,140.136 508.289,171.087 501.572,195 C499.133,203.683 496.149,214.021 487.999,218.995 C478.83,224.59 466.973,221.259 457,221.015 C431.626,220.393 406.354,217 381,217 Z" style="stroke:#000000;stroke-opacity:1;stroke-width:4;stroke-linejoin:miter;stroke-miterlimit:2;stroke-linecap:butt;fill:none;"/>
        </g>
    </g>
</svg>
