<?xml version="1.0"?>
<svg version="1.1" xmlns="http://www.w3.org/2000/svg" xmlns:xlink="http://www.w3.org/1999/xlink" width="516" height="516">
    <desc iVinci="yes" version="4.6" gridStep="20" showGrid="no" snapToGrid="no" codePlatform="0"/>
    <g id="Layer1" name="Layer 1" opacity="1">
        <g id="Shape1">
            <desc shapeID="1" type="0" basicInfo-basicType="0" basicInfo-roundedRectRadius="12" basicInfo-polygonSides="6" basicInfo-starPoints="5" bounding="rect(-253.042,-201.456,506.083,402.912)" text="" font-familyName="" font-pixelSize="20" font-bold="0" font-underline="0" font-alignment="1" strokeStyle="0" markerStart="0" markerEnd="0" shadowEnabled="0" shadowOffsetX="0" shadowOffsetY="2" shadowBlur="4" shadowOpacity="160" blurEnabled="0" blurRadius="4" transform="matrix(1,0,0,1,258.678,258.61)" pers-center="0,0" pers-size="0,0" pers-start="0,0" pers-end="0,0" locked="0" mesh="" flag=""/>
            <path id="shapePath1" d="M177,446 C170.804,439.67 165.497,456.758 158,459.297 C149.66,462.122 142.868,456.346 135,455.171 C129.586,454.362 122.889,456.437 118.001,455.212 C110.766,453.399 107.162,442.163 101.571,437.938 C98.2494,435.427 93.5339,436.681 90.1335,434.258 C86.8052,431.886 86.644,427.543 83.6968,424.904 C75.7982,417.833 65.8497,413.507 58.1698,405.83 C51.7124,399.376 42.4147,391.311 40.3904,382 C38.6443,373.968 43.1363,368.36 45.0756,361 C47.4814,351.87 47.1236,342.207 45.5648,333 C43.0821,318.336 34.1899,297.417 24.4823,286.093 C20.4693,281.412 5.63579,277.87 5.63579,271.05 C5.63579,266.971 12.0598,265.181 15,263.777 C25.8467,258.597 35.4074,252.487 44,243.996 C51.8513,236.238 60.8442,228.642 64.7569,218 C66.5608,213.094 65.0089,207.689 66.7562,203.09 C67.9304,199.998 71.2099,198.243 72.0741,194.985 C72.9776,191.579 70.7167,188.446 72.7824,185.17 C80.9654,172.19 97.6234,164.544 106.005,151 C109.309,145.662 109.881,132.927 103.772,129.013 C98.2856,125.499 87.5895,126.866 86.1759,118.015 C85.3198,112.654 99.1439,106.816 101.911,102 C105.085,96.4773 105.082,89.4112 112.004,86.7423 C124.365,81.9762 129.731,96.9827 139.05,99.6551 C142.087,100.526 146.694,96.0236 150.001,95.4437 C158.805,93.8998 167.572,97.7231 175.995,96.5663 C185.434,95.2702 180.54,84.3875 186.228,79.6991 C197.744,70.2068 215.954,73.8538 228,65.7762 C232.384,62.8365 238.819,55.206 244.852,57.6188 C250.276,59.7881 247.057,81.1705 248.286,87 C251.569,102.572 266.179,112.169 281,115.331 C294.509,118.213 308.582,115.312 322,118.503 C336.364,121.919 348.454,139.039 364,134.351 C371.578,132.066 377.749,125.242 384,120.705 C387.864,117.901 409.71,109.887 412.914,115.357 C414.728,118.455 411.08,121.849 408.981,123.624 C403.834,127.976 391.945,132.948 395,141 C398.023,145.779 402.33,132.515 408,129.901 C418.789,124.929 428.224,126.38 436.945,116.999 C442.904,110.59 440.003,94.4142 451.004,93.1875 C463.641,91.7783 472.155,101.785 482,106.825 C489.027,110.423 496.025,111.198 499.254,120 C501.776,126.877 493.823,132.381 495.836,138.996 C498.839,148.87 517.891,148.99 509.682,163.89 C506.255,170.111 497.61,165.857 492.015,167.434 C487.4,168.734 484.189,174.26 481.622,178 C473.401,189.974 480.611,201.545 475.552,212.999 C472.168,220.66 463.73,220.429 458.09,225.34 C446.468,235.46 444.464,248.631 430,256.896 C422.462,261.204 407.653,266.411 399,265.956 C386.479,265.298 382.968,254.354 371.153,266.325 C365.932,271.615 372.101,276.493 377,279.004 C387.1,284.18 404.003,289.173 396.427,304.996 C392.031,314.175 376.418,320.149 368,325.2 C343.854,339.687 319.902,354.537 296,369.424 C276.508,381.564 254.518,392.901 238,409.015 C224.864,421.829 216.813,439.203 203.53,451.487 C196.459,458.026 185.976,455.171 177,446 Z" style="stroke:#000000;stroke-opacity:1;stroke-width:4;stroke-linejoin:miter;stroke-miterlimit:2;stroke-linecap:butt;fill:none;"/>
        </g>
    </g>
</svg>
