<?xml version="1.0"?>
<svg version="1.1" xmlns="http://www.w3.org/2000/svg" xmlns:xlink="http://www.w3.org/1999/xlink" width="358" height="246">
    <desc iVinci="yes" version="4.6" gridStep="20" showGrid="no" snapToGrid="no" codePlatform="0"/>
    <g id="Layer1" name="Layer 1" opacity="1">
        <g id="Shape1">
            <desc shapeID="1" type="0" basicInfo-basicType="0" basicInfo-roundedRectRadius="12" basicInfo-polygonSides="6" basicInfo-starPoints="5" bounding="rect(-174.981,-118.653,349.962,237.307)" text="" font-familyName="" font-pixelSize="20" font-bold="0" font-underline="0" font-alignment="1" strokeStyle="0" markerStart="0" markerEnd="0" shadowEnabled="0" shadowOffsetX="0" shadowOffsetY="2" shadowBlur="4" shadowOpacity="160" blurEnabled="0" blurRadius="4" transform="matrix(1,0,0,1,178.942,123.701)" pers-center="0,0" pers-size="0,0" pers-start="0,0" pers-end="0,0" locked="0" mesh="" flag=""/>
            <path id="shapePath1" d="M114.53,114.687 C89.0037,92.5977 56.744,70.9639 30,50.3488 C24.046,45.7593 4.49483,35.0226 3.97067,26.9892 C3.56784,20.815 15.7553,15.5774 20,12.5756 C23.9371,9.7914 28.08,6.0041 33,5.22839 C39.9947,4.12556 47.6279,8.32541 54,10.6813 C68.6786,16.1084 83.3036,21.6772 98,27.0532 C102.655,28.7561 110.015,33.8082 115,32.2137 C121.902,30.0063 127.651,17.6682 135.957,20.7577 C141.18,22.7007 143.104,30.1437 147.043,33.8156 C156.631,42.7533 170.058,53.2649 182,58.6875 C216.908,74.5389 255.042,85.5443 291,98.9498 C308.911,105.627 329.679,110.368 342.895,125 C358.442,142.212 353,173.737 353,195 C353,204.125 354.261,214.242 351.239,223 C346.242,237.482 331.747,245.919 317,240.896 C279.478,228.114 321.895,189.991 330.39,173 C334.315,165.15 337.066,151.604 327.956,146.09 C320.008,141.278 313.872,147.234 307,150.727 C297.564,155.523 284.716,159.574 274,158.816 C260.214,157.841 247.917,153.046 237,144.575 C229.07,138.422 221.708,127.51 211,127.041 C200.717,126.59 189.362,132.832 189.015,144 C188.854,149.211 191.267,160.919 185.772,164.045 C180.307,167.152 170.943,157.336 167,154.373 C150.594,142.049 130.603,127.442 114.53,114.687 Z" style="stroke:#000000;stroke-opacity:1;stroke-width:4;stroke-linejoin:miter;stroke-miterlimit:2;stroke-linecap:butt;fill:none;"/>
        </g>
    </g>
</svg>
