<?xml version="1.0"?>
<svg version="1.1" xmlns="http://www.w3.org/2000/svg" xmlns:xlink="http://www.w3.org/1999/xlink" width="516" height="407">
    <desc iVinci="yes" version="4.6" gridStep="20" showGrid="no" snapToGrid="no" codePlatform="0"/>
    <g id="Layer1" name="Layer 1" opacity="1">
        <g id="Shape1">
            <desc shapeID="1" type="0" basicInfo-basicType="0" basicInfo-roundedRectRadius="12" basicInfo-polygonSides="6" basicInfo-starPoints="5" bounding="rect(-250.73,-193.896,501.46,387.792)" text="" font-familyName="" font-pixelSize="20" font-bold="0" font-underline="0" font-alignment="1" strokeStyle="0" markerStart="0" markerEnd="0" shadowEnabled="0" shadowOffsetX="0" shadowOffsetY="2" shadowBlur="4" shadowOpacity="160" blurEnabled="0" blurRadius="4" transform="matrix(1,0,0,1,260.31,204.705)" pers-center="0,0" pers-size="0,0" pers-start="0,0" pers-end="0,0" locked="0" mesh="" flag=""/>
            <path id="shapePath1" d="M230.901,58.1405 C214.909,65.5858 191.996,69.4944 175,74.152 C149.864,81.0405 125.062,89.0876 100,96.2909 C84.5831,100.722 58.8664,104.943 47.108,116.21 C40.3475,122.688 41,134.326 41,143 C41,154.896 39.5507,166.082 34.5571,177 C28.5878,190.051 14.5799,195.092 10.7608,210 C0.899872,248.493 55.7347,248.877 66.0054,276 C74.575,298.631 28.3775,296.92 37.6196,321 C43.9493,337.492 63.1695,344.252 78,350.861 C110.438,365.317 142.484,385.007 177,394.116 C190.495,397.677 206.9,401.748 220,394.865 C242.265,383.167 220.781,359.973 208,350.478 C194.457,340.417 177.517,335.527 165,323.91 C141.724,302.307 145.271,268.889 169,249.329 C187.956,233.703 215.809,244.216 237,248.79 C293.973,261.088 350.035,277.476 407,289.79 C422.085,293.051 436.936,297.26 452,300.65 C459.116,302.252 467.458,304.862 473.999,300.347 C486.591,291.658 486.226,276.013 477.547,265 C462.474,245.873 439.538,227.001 430.465,204 C426.467,193.866 428.595,183.447 429.845,173 C432.233,153.042 432.966,130.16 439.225,111 C442.326,101.504 455.089,96.1044 463.985,101.742 C476,109.357 483.823,138.631 502.907,123.291 C505.342,121.333 507.197,118.846 508.471,115.999 C513.512,104.731 510.197,92.0855 506.515,81 C497.119,52.7074 478.216,31.4044 451,18.9197 C418.63,4.07089 390.453,12.5432 358,21.1157 C316.831,31.9904 271.452,45.1742 230.901,58.1405 Z" style="stroke:#000000;stroke-opacity:1;stroke-width:4;stroke-linejoin:miter;stroke-miterlimit:2;stroke-linecap:butt;fill:none;"/>
        </g>
    </g>
</svg>
