<?xml version="1.0"?>
<svg version="1.1" xmlns="http://www.w3.org/2000/svg" xmlns:xlink="http://www.w3.org/1999/xlink" width="516" height="516">
    <desc iVinci="yes" version="4.6" gridStep="20" showGrid="no" snapToGrid="no" codePlatform="0"/>
    <g id="Layer1" name="Layer 1" opacity="1">
        <g id="Shape1">
            <desc shapeID="1" type="0" basicInfo-basicType="0" basicInfo-roundedRectRadius="12" basicInfo-polygonSides="6" basicInfo-starPoints="5" bounding="rect(-242.028,-240.278,484.057,480.556)" text="" font-familyName="" font-pixelSize="20" font-bold="0" font-underline="0" font-alignment="1" strokeStyle="0" markerStart="0" markerEnd="0" shadowEnabled="0" shadowOffsetX="0" shadowOffsetY="2" shadowBlur="4" shadowOpacity="160" blurEnabled="0" blurRadius="4" transform="matrix(1,0,0,1,258.065,259.417)" pers-center="0,0" pers-size="0,0" pers-start="0,0" pers-end="0,0" locked="0" mesh="" flag=""/>
            <path id="shapePath1" d="M416.638,142.974 C400.983,162.34 375.219,185.611 358.09,204 C323.735,240.88 289.483,278.434 252,312.169 C238.147,324.637 223.172,335.741 208,346.558 C203.257,349.939 196.404,357.031 190.015,356.262 C175.437,354.508 186.831,328.708 190.025,322 C195.247,311.037 200.484,300.697 203.981,289 C208.887,272.594 197.731,254.919 181,251.769 C159.175,247.66 132.658,256.021 113,265.079 C101.982,270.156 90.68,282.339 98.8927,294.981 C108.882,310.357 135.955,296.377 144.146,316 C148.967,327.549 143.928,343.043 143.09,355 C140.466,392.439 132.504,429.876 122.29,466 C117.922,481.451 106.658,507.433 85.0401,497.486 C75.1507,492.936 77.1215,472.782 78.5941,464 C82.2455,442.226 91.4959,420.211 97.6921,399 C100.099,390.762 106.177,378.547 102.482,370.005 C99.1352,362.266 86.1865,358.504 79,355.366 C55.8804,345.269 14.2991,336.459 16.0934,305 C16.743,293.609 23.8759,285.632 30.5764,277 C42.0075,262.274 53.8734,247.859 65.1296,233 C88.3094,202.401 111.832,162.584 145,142.383 C163.33,131.22 184.691,127.234 205,121.302 C239.214,111.307 273.6,101.84 308,92.5764 C321.727,88.8797 336.825,86.377 350,81.0201 C357.305,78.05 360.769,72.5846 361.714,65 C362.287,60.3993 361.141,55.1463 365.228,51.875 C371.348,46.9777 381.695,44.1568 389,41.3758 C407.931,34.1682 427.288,28.5576 447,23.8843 C456.18,21.7078 468.674,17.6949 478,19.669 C498.131,23.9302 505.367,40.1603 496.12,58 C485.177,79.1092 460.225,96.6784 444.09,114 C437.186,121.411 424.548,135.028 416.638,142.974 Z" style="stroke:#000000;stroke-opacity:1;stroke-width:4;stroke-linejoin:miter;stroke-miterlimit:2;stroke-linecap:butt;fill:none;"/>
        </g>
    </g>
</svg>
