<?xml version="1.0"?>
<svg version="1.1" xmlns="http://www.w3.org/2000/svg" xmlns:xlink="http://www.w3.org/1999/xlink" width="516" height="292">
    <desc iVinci="yes" version="4.6" gridStep="20" showGrid="no" snapToGrid="no" codePlatform="0"/>
    <g id="Layer1" name="Layer 1" opacity="1">
        <g id="Shape1">
            <desc shapeID="1" type="0" basicInfo-basicType="0" basicInfo-roundedRectRadius="12" basicInfo-polygonSides="6" basicInfo-starPoints="5" bounding="rect(-249.844,-140.789,499.688,281.579)" text="" font-familyName="" font-pixelSize="20" font-bold="0" font-underline="0" font-alignment="1" strokeStyle="0" markerStart="0" markerEnd="0" shadowEnabled="0" shadowOffsetX="0" shadowOffsetY="2" shadowBlur="4" shadowOpacity="160" blurEnabled="0" blurRadius="4" transform="matrix(1,0,0,1,253.932,147.656)" pers-center="0,0" pers-size="0,0" pers-start="0,0" pers-end="0,0" locked="0" mesh="" flag=""/>
            <path id="shapePath1" d="M497.587,189.14 C497.635,171.703 499.516,149.366 501.17,132 C501.979,123.502 505.391,112.353 502.852,104 C500.438,96.0585 492.941,92.011 486,88.6806 C470.27,81.1329 450.746,65.4674 433,64.3789 C421.384,63.6663 408.956,72.8875 409.259,85 C410.066,117.249 425.112,154.961 390,174.56 C383.741,178.054 376.249,180.883 369,179.674 C356.213,177.543 354.468,168.214 360.363,158 C368.425,144.031 390.523,122.849 368,110.109 C353.52,101.918 340.432,119.978 327,122.981 C314.143,125.855 299.878,119.971 287,119.09 C272.366,118.087 255.003,123.349 241,118.637 C229.494,114.764 219.025,104.789 210,97 C191.942,81.4166 175.171,63.2603 155.91,49.1782 C150.53,45.2441 144.728,43.1795 138,43.179 C132.056,43.1786 125.294,45.3981 120.343,40.686 C111.381,32.1557 119.164,16.0921 107.957,8.74228 C103.5,5.81952 96.7726,6.81168 92,8.35956 C79.9947,12.2532 67.2958,16.9998 56,22.6288 C51.5433,24.8497 45.3661,26.5053 42.9383,31.3009 C39.7424,37.6137 44.3946,45.5895 47.4252,51 C53.6615,62.1339 61.6508,74.391 54.4668,86.9992 C47.8327,98.6424 30.8846,102.029 19,105.717 C12.3842,107.77 4.08797,110.759 4.08797,119 C4.08797,128.536 13.7881,129.672 21,131.475 C37.1725,135.518 54.4425,139.173 71,141.155 C76.813,141.851 84.466,143.482 89.9097,140.543 C107.512,131.041 91.3539,111.028 91.0147,98 C90.7528,87.9436 94.2148,77.7719 106,77.108 C115.302,76.5841 124.406,83.5335 132,88.0779 C148.826,98.1472 165.862,108.1 183,117.617 C252.232,156.066 321.259,196.038 389,237.061 C412.011,250.996 436.054,263.294 459,277.319 C464.365,280.598 478.316,291.186 484.786,287.778 C491.07,284.467 491.899,269.209 492.003,263 C492.395,239.67 497.572,212.428 497.587,189.14 Z" style="stroke:#000000;stroke-opacity:1;stroke-width:4;stroke-linejoin:miter;stroke-miterlimit:2;stroke-linecap:butt;fill:none;"/>
        </g>
    </g>
</svg>
