<?xml version="1.0"?>
<svg version="1.1" xmlns="http://www.w3.org/2000/svg" xmlns:xlink="http://www.w3.org/1999/xlink" width="516" height="269">
    <desc iVinci="yes" version="4.6" gridStep="20" showGrid="no" snapToGrid="no" codePlatform="0"/>
    <g id="Layer1" name="Layer 1" opacity="1">
        <g id="Shape1">
            <desc shapeID="1" type="0" basicInfo-basicType="0" basicInfo-roundedRectRadius="12" basicInfo-polygonSides="6" basicInfo-starPoints="5" bounding="rect(-250.817,-124.826,501.633,249.652)" text="" font-familyName="" font-pixelSize="20" font-bold="0" font-underline="0" font-alignment="1" strokeStyle="0" markerStart="0" markerEnd="0" shadowEnabled="0" shadowOffsetX="0" shadowOffsetY="2" shadowBlur="4" shadowOpacity="160" blurEnabled="0" blurRadius="4" transform="matrix(1,0,0,1,258.429,136.408)" pers-center="0,0" pers-size="0,0" pers-start="0,0" pers-end="0,0" locked="0" mesh="" flag=""/>
            <path id="shapePath1" d="M 240.51111,125.78918 307,79.9761 c 14.734,-10.155 29.425,-20.295 44,-30.6852 7.005,-4.9942 14.861,-11.6208 24,-11.186 11.332,0.5393 23.712,11.8742 20.517,23.8951 -2.174,8.1812 -10.202,15.3103 -15.14,22 -7.322,9.9214 -11.618,22.526 -10.091,35 1.123,9.172 2.833,19.163 9.807,25.815 14.323,13.659 34.623,11.323 44.988,31.185 9.307,17.834 -14.758,40.528 -32.08,30.633 -12.246,-6.996 -10.86536,-19.64118 -14.72336,-31.10718 -2.874,-8.537 -14.04509,-20.56745 -25.33597,-27.82808 C 331.24526,138.98823 330.4138,138.99159 306,147.576 c -6.941,4.054 -14.705,8.968 -16.606,17.424 -2.559,11.377 1.243,24.433 5.182,35 10.451,28.043 32.173,57.372 64.424,60.826 30.467,3.264 51.337,-13.549 73,-32.541 15.638,-13.711 31.374,-27.487 45.996,-42.285 10.24,-10.363 28.471,-25.788 30.791,-41 2.715,-17.798 -7.164,-38.855 -15.481,-54 C 483.11,72.4349 470.349,50.1116 453.996,36.3256 441.634,25.9037 424.184,19.4114 409,14.3549 382.591,5.56036 365.151,19.264 344,33.4028 322.743,47.6125 300.89,63.6182 275,66.7145 251.448,69.5313 225.486,65.4048 202,63.1698 163.107,59.4686 123.969,57.1092 85,53.9144 56.9099,51.6114 24.2483,44.0976 10.9267,78 c -10.25275,26.092 6.0778,61.028 11.2731,87 3.343,16.711 7.7892,33.445 11.9267,50 2.0031,8.014 3.9756,17.596 10.1775,23.532 6.2486,5.98 15.8125,7.852 23.696,4.205 8.1978,-3.792 15.5758,-10.594 23,-15.712 13.159,-9.069 26.869,-17.318 40,-26.439 z" style="stroke:#000000;stroke-opacity:1;stroke-width:4;stroke-linejoin:miter;stroke-miterlimit:2;stroke-linecap:butt;fill:none;"/>
        </g>
    </g>
</svg>
