<?xml version="1.0"?>
<svg version="1.1" xmlns="http://www.w3.org/2000/svg" xmlns:xlink="http://www.w3.org/1999/xlink" width="516" height="269">
    <desc iVinci="yes" version="4.6" gridStep="20" showGrid="no" snapToGrid="no" codePlatform="0"/>
    <g id="Layer1" name="Layer 1" opacity="1">
        <g id="Shape1">
            <desc shapeID="1" type="0" basicInfo-basicType="0" basicInfo-roundedRectRadius="12" basicInfo-polygonSides="6" basicInfo-starPoints="5" bounding="rect(-250.817,-124.826,501.633,249.652)" text="" font-familyName="" font-pixelSize="20" font-bold="0" font-underline="0" font-alignment="1" strokeStyle="0" markerStart="0" markerEnd="0" shadowEnabled="0" shadowOffsetX="0" shadowOffsetY="2" shadowBlur="4" shadowOpacity="160" blurEnabled="0" blurRadius="4" transform="matrix(1,0,0,1,258.429,136.408)" pers-center="0,0" pers-size="0,0" pers-start="0,0" pers-end="0,0" locked="0" mesh="" flag=""/>
            <path id="shapePath1" d="M359.602,149.801 C365.81,156.01 376.28,166.463 379.154,175 C383.012,186.466 380.755,199.637 393.001,206.633 C410.323,216.528 434.388,193.834 425.081,176 C414.716,156.138 394.416,158.474 380.093,144.815 C373.119,138.163 371.409,128.172 370.286,119 C368.759,106.526 373.055,93.9214 380.377,84 C385.315,77.3103 393.343,70.1812 395.517,62 C398.712,49.9791 386.332,38.6442 375,38.1049 C365.861,37.6701 358.005,44.2967 351,49.2909 C336.425,59.6811 321.734,69.8211 307,79.9761 C248.443,120.336 189.415,160.013 131,200.586 C117.869,209.707 104.159,217.956 91,227.025 C83.5758,232.143 76.1978,238.945 68,242.737 C60.1165,246.384 50.5526,244.512 44.304,238.532 C38.1021,232.596 36.1296,223.014 34.1265,215 C29.989,198.445 25.5428,181.711 22.1998,165 C17.0045,139.028 0.67395,104.092 10.9267,78 C24.2483,44.0976 56.9099,51.6114 85,53.9144 C123.969,57.1092 163.107,59.4686 202,63.1698 C225.486,65.4048 251.448,69.5313 275,66.7145 C300.89,63.6182 322.743,47.6125 344,33.4028 C365.151,19.264 382.591,5.56036 409,14.3549 C424.184,19.4114 441.634,25.9037 453.996,36.3256 C470.349,50.1116 483.11,72.4349 493.306,91 C501.623,106.145 511.502,127.202 508.787,145 C506.467,160.212 488.236,175.637 477.996,186 C463.374,200.798 447.638,214.574 432,228.285 C410.337,247.277 389.467,264.09 359,260.826 C326.749,257.372 305.027,228.043 294.576,200 C290.637,189.433 286.835,176.377 289.394,165 C291.295,156.544 299.059,151.63 306,147.576 C324.765,136.618 338.416,134.5 359.602,149.801 Z" style="stroke:#000000;stroke-opacity:1;stroke-width:4;stroke-linejoin:miter;stroke-miterlimit:2;stroke-linecap:butt;fill:none;"/>
        </g>
    </g>
</svg>
