<?xml version="1.0"?>
<svg version="1.1" xmlns="http://www.w3.org/2000/svg" xmlns:xlink="http://www.w3.org/1999/xlink" width="516" height="294">
    <desc iVinci="yes" version="4.6" gridStep="20" showGrid="no" snapToGrid="no" codePlatform="0"/>
    <g id="Layer1" name="Layer 1" opacity="1">
        <g id="Shape1">
            <desc shapeID="1" type="0" basicInfo-basicType="0" basicInfo-roundedRectRadius="12" basicInfo-polygonSides="6" basicInfo-starPoints="5" bounding="rect(-249.632,-140.994,499.264,281.988)" text="" font-familyName="" font-pixelSize="20" font-bold="0" font-underline="0" font-alignment="1" strokeStyle="0" markerStart="0" markerEnd="0" shadowEnabled="0" shadowOffsetX="0" shadowOffsetY="2" shadowBlur="4" shadowOpacity="160" blurEnabled="0" blurRadius="4" transform="matrix(1,0,0,1,253.897,147.791)" pers-center="0,0" pers-size="0,0" pers-start="0,0" pers-end="0,0" locked="0" mesh="" flag=""/>
            <path id="shapePath1" d="M497.458,188.816 C497.46,171.011 499.481,148.729 501.17,131 C502.014,122.137 505.423,110.667 502.106,102 C499.59,95.4238 492.676,92.7558 487,89.5764 C472.148,81.2563 451.024,66.3856 434,64.3156 C414.344,61.9255 409.31,80.0025 410.039,95 C411.561,126.321 421.855,158.104 388,175.833 C381.432,179.272 374.447,181.022 367.001,179.671 C356.262,177.722 355.908,167.045 360.213,159 C367.611,145.175 390.699,123.942 369,111.002 C354.04,102.08 342.623,119.343 329,122.471 C311.955,126.383 290.511,119.943 273,119.71 C262.722,119.573 252.012,122.882 242,119.352 C226.361,113.837 213.053,100.017 201,89.169 C182.151,72.205 162.854,55.7996 144,38.831 C133.027,28.9549 121.19,15.4046 107.999,8.54398 C94.7532,1.65439 71.4138,17.0348 59,21.939 C54.073,23.8855 46.1913,26.3751 43.2932,31.1327 C39.7114,37.0127 43.9095,43.651 46.4853,49 C51.9328,60.3124 62.4571,74.1021 54.6559,87 C46.5195,100.452 29.9964,100.752 17,106.619 C11.2901,109.196 4.06802,111.502 4.26852,119 C4.48857,127.229 12.0593,130.288 19,131.789 C35.7362,135.408 53,138.842 70,140.954 C77.0503,141.83 83.3438,144.813 89.9853,140.597 C107.067,129.754 91.9149,112.14 90.7847,98 C90.0213,88.4482 95.5853,78.0821 106,77.1512 C114.793,76.3653 123.872,83.7468 131,87.9105 C148.629,98.2085 166.375,108.302 184,118.6 C251.913,158.281 322.819,194.587 389,236.95 C412.026,251.689 436.072,265.023 460,278.234 C465.822,281.448 477.93,291.732 484.895,287.968 C491.806,284.233 491.955,269.83 491.999,263 C492.149,239.629 496.976,212.15 497.458,188.816 Z" style="stroke:#000000;stroke-opacity:1;stroke-width:4;stroke-linejoin:miter;stroke-miterlimit:2;stroke-linecap:butt;fill:none;"/>
        </g>
    </g>
</svg>
