<?xml version="1.0"?>
<svg version="1.1" xmlns="http://www.w3.org/2000/svg" xmlns:xlink="http://www.w3.org/1999/xlink" width="251" height="397">
    <desc iVinci="yes" version="4.6" gridStep="20" showGrid="no" snapToGrid="no" codePlatform="0"/>
    <g id="Layer1" name="Layer 1" opacity="1">
        <g id="Shape1">
            <desc shapeID="1" type="0" basicInfo-basicType="0" basicInfo-roundedRectRadius="12" basicInfo-polygonSides="6" basicInfo-starPoints="5" bounding="rect(-121.691,-194.65,243.383,389.299)" text="" font-familyName="" font-pixelSize="20" font-bold="0" font-underline="0" font-alignment="1" strokeStyle="0" markerStart="0" markerEnd="0" shadowEnabled="0" shadowOffsetX="0" shadowOffsetY="2" shadowBlur="4" shadowOpacity="160" blurEnabled="0" blurRadius="4" transform="matrix(1,0,0,1,125.235,199.2)" pers-center="0,0" pers-size="0,0" pers-start="0,0" pers-end="0,0" locked="0" mesh="" flag=""/>
            <path id="shapePath1" d="M64.2099,43.0712 C59.1513,34.6694 51.3142,23.5015 46.4282,15 C45.1875,12.8411 41.764,8.14105 43.8164,5.64349 C45.8494,3.16943 50.7357,5.54324 53,6.45294 C60.8379,9.60187 68.6463,13.2676 76,17.4244 C101.146,31.6385 118.1,54.9792 137.884,75.3812 C143.451,81.1213 151.425,83.88 156.66,90.0401 C163.451,98.0324 162.2,109.288 167.696,118 C177.685,133.832 190.626,148.194 199.029,165 C205.754,178.449 209.22,193.819 214.079,208 C222.824,233.527 231.646,259.209 239.586,285 C241.89,292.483 249.15,305.211 246.254,312.999 C244.178,318.583 237.26,320.764 236.434,327.001 C235.364,335.09 241.717,342.682 240.887,351 C239.803,361.868 221.928,370.418 214,376.373 C207.393,381.336 192.993,396.68 184.015,393.393 C178.201,391.264 176.081,383.969 179.657,379.093 C185.911,370.566 202.165,368.57 204.352,357 C205.823,349.215 199.186,338.243 196.657,331 C190.838,314.337 187.826,297.157 183.881,280 C181.561,269.909 179.069,260.463 168,256.85 C163.9,255.512 159.252,255.993 155,256 C124.818,256.05 119.5,293.409 111.656,316 C109.307,322.764 107.332,330.788 101.906,335.786 C89.6485,347.077 76.8002,326.884 64.2099,338.39 C56.5292,345.41 51.9605,358.141 46.5995,367 C43.7826,371.655 40.2948,377.4 34,376.731 C28.1957,376.115 22.7105,370.859 18,367.785 C13.8447,365.074 9.72217,362.221 6.96914,357.996 C-1.74624,344.62 7.97649,326.484 16.0363,315 C24.077,303.543 35.0953,291.856 47,284.425 C65.8073,272.686 88.1036,264.818 98.8912,244 C105.515,231.217 114.112,214.692 112.907,200 C112.206,191.462 106.748,182.781 103.427,175 C97.6085,161.363 92.2522,147.752 90.1312,133 C89.034,125.369 85.3584,113.564 87.3218,106.059 C88.7911,100.442 99.2642,103.283 97.098,95.9954 C95.3339,90.0606 89.8283,84.2076 86.5293,79 C80.0139,68.7149 71.2875,52.9742 64.2099,43.0712 Z" style="stroke:#000000;stroke-opacity:1;stroke-width:4;stroke-linejoin:;stroke-miterlimit:2;stroke-linecap:butt;fill:none;"/>
        </g>
    </g>
</svg>
