<?xml version="1.0"?>
<svg version="1.1" xmlns="http://www.w3.org/2000/svg" xmlns:xlink="http://www.w3.org/1999/xlink" width="516" height="443">
    <desc iVinci="yes" version="4.6" gridStep="20" showGrid="no" snapToGrid="no" codePlatform="0"/>
    <g id="Layer1" name="Layer 1" opacity="1">
        <g id="Shape1">
            <desc shapeID="1" type="0" basicInfo-basicType="0" basicInfo-roundedRectRadius="12" basicInfo-polygonSides="6" basicInfo-starPoints="5" bounding="rect(-243.636,-211.25,487.271,422.499)" text="" font-familyName="" font-pixelSize="20" font-bold="0" font-underline="0" font-alignment="1" strokeStyle="0" markerStart="0" markerEnd="0" shadowEnabled="0" shadowOffsetX="0" shadowOffsetY="2" shadowBlur="4" shadowOpacity="160" blurEnabled="0" blurRadius="4" transform="matrix(1,0,0,1,262.134,217.832)" pers-center="0,0" pers-size="0,0" pers-start="0,0" pers-end="0,0" locked="0" mesh="" flag=""/>
            <path id="shapePath1" d="M382.04,270.96 C362.731,244.953 328.9,245 300,245 C282.494,245 265.162,246.123 251,257.619 C236.977,269.002 231.048,300.991 211,302.896 C171.174,306.681 150.133,252.832 127,229.286 C110.303,212.291 90.536,224.688 71,215.91 C62.4811,212.082 56.6606,204.164 51.0147,197.001 C39.5957,182.513 28.3554,166.652 20.3025,150 C14.275,137.536 24.418,127.482 35,123.062 C54.6822,114.839 82.1103,113.688 103,117.286 C139.649,123.599 153.503,175.52 174.001,201 C192.47,223.959 216.432,224.473 236.946,202.985 C256.234,182.782 240.993,154.806 225,139.004 C188.812,103.246 140.833,79.702 95,59.0756 C80.792,52.6815 36.2644,35.0753 58.0941,14.1852 C79.5108,-6.30966 97.3678,19.6488 112.039,33.1551 C120.206,40.6728 129.639,48.1269 140,52.3734 C148.986,56.0562 158.644,56.9907 167,62.2685 C179.615,70.2365 186.569,85.0862 199,93.0301 C217.513,104.86 243.622,90.0493 261,104.264 C283.934,123.023 294.021,152.691 311.093,175.999 C323.129,192.431 342.737,205.43 360,215.827 C391.423,234.753 434.212,225.557 454.946,260 C465.72,277.898 471.425,300.16 477.674,320 C484.953,343.107 493.349,365.829 500.456,389 C504.17,401.109 514.397,431.951 490.001,428.866 C475.595,427.044 471.303,396.301 468.282,385 C464.098,369.354 460.616,351.038 452.236,337 C437.579,312.444 402.231,290.228 382.04,270.96 Z" style="stroke:#000000;stroke-opacity:1;stroke-width:4;stroke-linejoin:miter;stroke-miterlimit:2;stroke-linecap:butt;fill:none;"/>
        </g>
    </g>
</svg>
