<?xml version="1.0"?>
<svg version="1.1" xmlns="http://www.w3.org/2000/svg" xmlns:xlink="http://www.w3.org/1999/xlink" width="516" height="450">
    <desc iVinci="yes" version="4.6" gridStep="20" showGrid="no" snapToGrid="no" codePlatform="0"/>
    <g id="Layer1" name="Layer 1" opacity="1">
        <g id="Shape1">
            <desc shapeID="1" type="0" basicInfo-basicType="0" basicInfo-roundedRectRadius="12" basicInfo-polygonSides="6" basicInfo-starPoints="5" bounding="rect(-247.73,-187.375,495.459,374.749)" text="" font-familyName="" font-pixelSize="20" font-bold="0" font-underline="0" font-alignment="1" strokeStyle="0" markerStart="0" markerEnd="0" shadowEnabled="0" shadowOffsetX="0" shadowOffsetY="2" shadowBlur="4" shadowOpacity="160" blurEnabled="0" blurRadius="4" transform="matrix(1,0,0,1,252.409,206.334)" pers-center="0,0" pers-size="0,0" pers-start="0,0" pers-end="0,0" locked="0" mesh="" flag=""/>
            <path id="shapePath1" d="M394.648,307.737 C384.537,300.474 368.665,285.781 357,281.133 C345.294,276.468 331.379,276.503 319,275.961 C296.771,274.987 273.531,272.86 254,285.825 C234.135,299.011 225.758,339.597 197,335.812 C186.35,334.41 177.633,324.98 170,318.285 C155.803,305.832 143.916,291.649 132.094,277 C125.615,268.972 119.344,258.931 110.999,252.764 C99.0974,243.967 82.9691,247.185 69,246.996 C56.1203,246.822 48.5112,238.389 41,229 C29.9278,215.16 17.635,200.474 10.6597,184 C5.51051,171.839 -0.725403,160.973 13.0008,151.825 C21.9963,145.829 32.816,145.022 43,142.525 C53.5491,139.939 64.0672,137.561 75,138.039 C132.547,140.559 143.486,199.955 177.039,235 C194.731,253.479 227.909,249.892 238.34,225 C254.141,187.292 227.029,164.36 199,143.421 C166.95,119.478 135.212,94.7079 104,69.6937 C89.5156,58.0853 74.3273,47.3087 60.0154,35.4861 C56.2452,32.3717 49.9176,22.8636 57.1481,19.4467 C60.5166,17.855 65.034,20.5413 68,22.0393 C77.1646,26.6682 85.3262,33.4413 93,40.1844 C104.015,49.8636 115.02,61.334 128,68.4159 C137.212,73.4419 148.003,73.7658 157,79.5471 C169.557,87.6157 179.226,99.2882 191,108.251 C208.378,121.479 224.465,115.607 244,119.376 C257.92,122.061 270.24,132.972 281,141.513 C296.756,154.02 311.501,167.758 327,180.536 C342.81,193.571 361.073,205.839 374.891,221.015 C384.181,231.217 367.221,242.008 380.043,250.601 C402.516,265.662 432.773,256.967 454,275.209 C479.409,297.045 482.287,332.05 493.25,362 C495.812,369 506.936,390.677 493.995,393.523 C484.566,395.597 473.753,379.689 468,374.004 C446.177,352.44 416.414,329.323 394.648,307.737 Z" style="stroke:#000000;stroke-opacity:1;stroke-width:4;stroke-linejoin:miter;stroke-miterlimit:2;stroke-linecap:butt;fill:none;"/>
        </g>
    </g>
</svg>
