<?xml version="1.0"?>
<svg version="1.1" xmlns="http://www.w3.org/2000/svg" xmlns:xlink="http://www.w3.org/1999/xlink" width="516" height="499">
    <desc iVinci="yes" version="4.6" gridStep="20" showGrid="no" snapToGrid="no" codePlatform="0"/>
    <g id="Layer1" name="Layer 1" opacity="1">
        <g id="Shape1">
            <desc shapeID="1" type="0" basicInfo-basicType="0" basicInfo-roundedRectRadius="12" basicInfo-polygonSides="6" basicInfo-starPoints="5" bounding="rect(-248.982,-239.576,497.965,479.151)" text="" font-familyName="" font-pixelSize="20" font-bold="0" font-underline="0" font-alignment="1" strokeStyle="0" markerStart="0" markerEnd="0" shadowEnabled="0" shadowOffsetX="0" shadowOffsetY="2" shadowBlur="4" shadowOpacity="160" blurEnabled="0" blurRadius="4" transform="matrix(1,0,0,1,256.97,250.576)" pers-center="0,0" pers-size="0,0" pers-start="0,0" pers-end="0,0" locked="0" mesh="" flag=""/>
            <path id="shapePath1" d="M207,416 C174.351,426.605 133.4,432.966 100,440.884 C82.1457,445.117 62.5493,453.065 44,450.816 C17.3809,447.587 -4.38019,410.611 16.0432,388.619 C24.3595,379.664 47.3273,375.764 50.6559,392 C52.5704,401.338 44.6077,411.158 47.8974,419.999 C52.2424,431.677 65.9427,430.035 72.6597,421.985 C89.788,401.456 85.2288,365.361 93.2245,341.001 C97.6928,327.387 117.78,330.778 126.319,319.985 C140.248,302.382 146.042,275.255 155.745,255 C159.921,246.284 163.925,236.642 172.004,230.789 C189.443,218.153 216.175,221.086 228.049,240 C235.221,251.426 236.792,268.023 249.039,275.964 C258.055,281.81 273.889,266.752 278.779,259.961 C292.12,241.436 278.047,225.077 267.692,209 C245.24,174.142 225.179,137.735 202.505,103 C195.304,91.9688 188.767,72.3598 177.816,64.7431 C172.301,60.9078 166.844,66.3911 163,70.0386 C155.903,76.7734 147.022,84.0297 137.001,77.9915 C114.228,64.2696 120.53,24.4987 143,14.3518 C149.02,11.6332 155.49,11.0021 162,11 C203.633,10.9867 218.685,52.0651 239.883,81 C307.859,173.781 363.716,275.462 432.025,368 C452.875,396.245 469.907,427.331 490.144,456 C494.485,462.149 510.78,479.14 504.551,486.866 C498.684,494.142 489.074,487.742 484,482.957 C469.751,469.52 458.022,453.606 446.374,438 C435.062,422.844 424.364,407.219 413.13,392 C408.709,386.01 405.102,376.893 397.996,373.653 C383.924,367.236 359.094,379.571 345,382.961 C299.031,394.019 252.752,404.037 207,416 Z" style="stroke:#000000;stroke-opacity:1;stroke-width:4;stroke-linejoin:miter;stroke-miterlimit:2;stroke-linecap:butt;fill:none;"/>
        </g>
    </g>
</svg>
