<?xml version="1.0"?>
<svg version="1.1" xmlns="http://www.w3.org/2000/svg" xmlns:xlink="http://www.w3.org/1999/xlink" width="398" height="250">
    <desc iVinci="yes" version="4.6" gridStep="20" showGrid="no" snapToGrid="no" codePlatform="0"/>
    <g id="Layer1" name="Layer 1" opacity="1">
        <g id="Shape1">
            <desc shapeID="1" type="0" basicInfo-basicType="0" basicInfo-roundedRectRadius="12" basicInfo-polygonSides="6" basicInfo-starPoints="5" bounding="rect(-195.513,-121.855,391.026,243.709)" text="" font-familyName="" font-pixelSize="20" font-bold="0" font-underline="0" font-alignment="1" strokeStyle="0" markerStart="0" markerEnd="0" shadowEnabled="0" shadowOffsetX="0" shadowOffsetY="2" shadowBlur="4" shadowOpacity="160" blurEnabled="0" blurRadius="4" transform="matrix(1,0,0,1,199.752,125.933)" pers-center="0,0" pers-size="0,0" pers-start="0,0" pers-end="0,0" locked="0" mesh="" flag=""/>
            <path id="shapePath1" d="M233.004,161.317 C211.601,145.942 188.947,128.096 168,112.116 C158.013,104.496 148.252,95.0832 137,89.3735 C122.782,82.1585 109.121,87.7064 95,83.348 C82.6941,79.5499 69.5645,67.9458 58,61.6914 C50.2732,57.5125 37.2641,53.6011 31.6489,46.787 C27.0281,41.1796 30.0513,32.0281 23.8912,27.7423 C18.8335,24.2234 3.96069,30.1667 4.24306,21.9807 C4.54753,13.1533 9.33942,1.32817 20,4.65277 C33.7025,8.92603 36.7901,27.1796 47.0039,35.6705 C58.9614,45.6112 79.5202,49.5516 94,54.9498 C161.3,80.0401 228.702,104.86 296,129.95 L355,151.95 C364.727,155.576 377.031,158.263 384.907,165.329 C398.519,177.541 395.206,200.696 394.09,217 C393.686,222.886 394.928,229.278 393.2,235 C389.985,245.641 378.017,250.316 368.004,246.437 C345.797,237.834 373.292,211.065 378.676,201 C381.424,195.864 384.413,186.933 377.867,183.179 C368.568,177.847 351.149,192.555 340,191.907 C331.007,191.383 322.909,187.275 316,181.689 C310.62,177.339 305.378,170.409 298,170.048 C277.932,169.065 290.851,188.484 279.891,194.172 C275.541,196.43 269.995,190.219 267,187.75 C256.594,179.172 243.213,170.151 233.004,161.317 Z" style="stroke:#000000;stroke-opacity:1;stroke-width:4;stroke-linejoin:miter;stroke-miterlimit:2;stroke-linecap:butt;fill:none;"/>
        </g>
    </g>
</svg>
