<?xml version="1.0"?>
<svg version="1.1" xmlns="http://www.w3.org/2000/svg" xmlns:xlink="http://www.w3.org/1999/xlink" width="398" height="250">
    <desc iVinci="yes" version="4.6" gridStep="20" showGrid="no" snapToGrid="no" codePlatform="0"/>
    <g id="Layer1" name="Layer 1" opacity="1">
        <g id="Shape1">
            <desc shapeID="1" type="0" basicInfo-basicType="0" basicInfo-roundedRectRadius="12" basicInfo-polygonSides="6" basicInfo-starPoints="5" bounding="rect(-195.513,-121.855,391.026,243.709)" text="" font-familyName="" font-pixelSize="20" font-bold="0" font-underline="0" font-alignment="1" strokeStyle="0" markerStart="0" markerEnd="0" shadowEnabled="0" shadowOffsetX="0" shadowOffsetY="2" shadowBlur="4" shadowOpacity="160" blurEnabled="0" blurRadius="4" transform="matrix(1,0,0,1,199.752,125.933)" pers-center="0,0" pers-size="0,0" pers-start="0,0" pers-end="0,0" locked="0" mesh="" flag=""/>
            <path id="shapePath1" d="M232.812,161.469 C211.41,146.094 188.947,128.096 168,112.116 C159.18,105.386 150.152,96.0157 140,91.4174 C129.193,86.5226 124.141,100.928 114,98.3472 C96.3462,93.8554 81.0853,73.9984 65,65.2307 C55.4491,60.0247 38.5747,55.1916 31.6489,46.787 C27.2071,41.3968 29.9287,33.015 24.7716,28.4336 C19.7311,23.9559 3.95963,30.1982 4.24306,21.9807 C4.54753,13.1533 9.33942,1.32817 20,4.65277 C33.7025,8.92603 36.7901,27.1796 47.0039,35.6705 C59.9167,46.4053 82.3767,50.5317 98,56.4236 C127.271,67.4622 156.688,78.1222 186,89.0502 C199.845,94.2117 214.591,101.891 229,105.037 C236.323,106.636 238.765,95.3579 245.961,97.7863 C250.646,99.3675 253.466,105.609 257.015,108.816 C264.197,115.305 272.899,121.603 282,124.947 C305.683,133.648 329.414,142.223 353,151.192 C363.296,155.107 376.553,157.834 384.907,165.329 C398.519,177.541 395.206,200.696 394.09,217 C393.686,222.886 394.928,229.278 393.2,235 C389.985,245.641 378.017,250.316 368.004,246.437 C345.797,237.834 373.292,211.065 378.676,201 C381.424,195.864 384.413,186.933 377.867,183.179 C368.568,177.847 351.149,192.555 340,191.907 C331.007,191.383 322.909,187.275 316,181.689 C310.62,177.339 305.378,170.409 298,170.048 C277.932,169.065 290.851,188.484 279.891,194.172 C275.541,196.43 269.995,190.219 267,187.75 C256.594,179.172 243.021,170.303 232.812,161.469 Z" style="stroke:#000000;stroke-opacity:1;stroke-width:4;stroke-linejoin:miter;stroke-miterlimit:2;stroke-linecap:butt;fill:none;"/>
        </g>
    </g>
</svg>
