<?xml version="1.0"?>
<svg version="1.1" xmlns="http://www.w3.org/2000/svg" xmlns:xlink="http://www.w3.org/1999/xlink" width="230" height="450">
    <desc iVinci="yes" version="4.6" gridStep="20" showGrid="no" snapToGrid="no" codePlatform="0"/>
    <g id="Layer1" name="Layer 1" opacity="1">
        <g id="Shape1">
            <desc shapeID="1" type="0" basicInfo-basicType="0" basicInfo-roundedRectRadius="12" basicInfo-polygonSides="6" basicInfo-starPoints="5" bounding="rect(-110.495,-220.334,220.991,440.668)" text="" font-familyName="" font-pixelSize="20" font-bold="0" font-underline="0" font-alignment="1" strokeStyle="0" markerStart="0" markerEnd="0" shadowEnabled="0" shadowOffsetX="0" shadowOffsetY="2" shadowBlur="4" shadowOpacity="160" blurEnabled="0" blurRadius="4" transform="matrix(1,0,0,1,114.874,225.219)" pers-center="0,0" pers-size="0,0" pers-start="0,0" pers-end="0,0" locked="0" mesh="" flag=""/>
            <path id="shapePath1" d="M69.7512,378.665 C58.1059,362.783 34.2435,347.546 20,334 C14.6228,328.886 6.25793,323.78 4.59799,316 C3.30612,309.945 8.0209,302.955 10.9498,298 C17.5426,286.847 23.8259,275.373 30.0478,264 C56.0375,216.493 89.422,170.404 109.6,120 C122.949,86.6553 138.044,53.9886 152.228,21 C157.34,9.11261 168.714,-2.02979 180.867,10.1852 C190.18,19.5467 181.631,32.4487 177.41,42 C165.407,69.1659 152.77,96.0444 140.308,123 C123.217,159.967 106.86,197.279 89.2222,234 C81.2325,250.634 67.2087,272.022 68.0409,291 C68.4913,301.271 74.971,311.126 79.5756,320 C88.4435,337.09 96.6175,356.107 107.468,371.996 C121.745,392.903 146.79,362.331 147.909,346 C149.809,318.286 113.038,311.013 109.3,285 C107.634,273.405 113.258,261.376 117.719,251 C124.601,234.994 131.683,219.064 138.424,203 C142.058,194.343 145.488,181.438 153.043,175.419 C157.636,171.76 163.428,171.878 169,172.015 C183.006,172.358 211.888,173.21 220.956,185.093 C235.723,204.444 209.637,212.407 198.285,221.484 C187.941,229.756 182.868,241.863 183.004,255 C183.157,269.8 189.955,282.826 188.91,298 C187.876,313.024 182.017,328.431 178.375,343 C173.666,361.835 170.471,381.072 166.119,400 C163.522,411.292 161.589,422.776 158.731,434 C157.577,438.532 156.586,444.511 150.995,445.458 C143.589,446.714 134.081,435.187 129,430.866 C110.024,414.727 88.0749,395.543 69.7512,378.665 Z" style="stroke:#000000;stroke-opacity:1;stroke-width:4;stroke-linejoin:;stroke-miterlimit:2;stroke-linecap:butt;fill:none;"/>
        </g>
    </g>
</svg>
