<?xml version="1.0"?>
<svg version="1.1" xmlns="http://www.w3.org/2000/svg" xmlns:xlink="http://www.w3.org/1999/xlink" width="251" height="397">
    <desc iVinci="yes" version="4.6" gridStep="20" showGrid="no" snapToGrid="no" codePlatform="0"/>
    <g id="Layer1" name="Layer 1" opacity="1">
        <g id="Shape1">
            <desc shapeID="1" type="0" basicInfo-basicType="0" basicInfo-roundedRectRadius="12" basicInfo-polygonSides="6" basicInfo-starPoints="5" bounding="rect(-121.612,-194.645,243.223,389.29)" text="" font-familyName="" font-pixelSize="20" font-bold="0" font-underline="0" font-alignment="1" strokeStyle="0" markerStart="0" markerEnd="0" shadowEnabled="0" shadowOffsetX="0" shadowOffsetY="2" shadowBlur="4" shadowOpacity="160" blurEnabled="0" blurRadius="4" transform="matrix(1,0,0,1,125.254,199.228)" pers-center="0,0" pers-size="0,0" pers-start="0,0" pers-end="0,0" locked="0" mesh="" flag=""/>
            <path id="shapePath1" d="M114.58,50.0712 C122.015,57.7802 132.096,70.8099 140.3,77.6999 C145.876,82.3823 152.905,85.0619 157.443,91.0146 C163.281,98.6727 162.161,108.891 167.069,117 C176.984,133.382 190.431,147.804 199.029,165 C211.076,189.093 217.16,217.479 225.667,243 C231.296,259.888 238,276.825 242.626,294 C244.099,299.468 247.991,306.222 246.552,312 C245.316,316.96 240.423,319.04 237.859,323.09 C232.266,331.921 243.218,343.266 240.566,353 C239.082,358.451 233.269,362.129 229,365.335 C219.413,372.536 209.54,379.384 200,386.654 C195.819,389.841 190.822,394.963 185.004,393.667 C178.551,392.229 175.888,384.232 179.657,379.093 C185.876,370.613 200.899,368.897 204.106,357.999 C206.408,350.179 199.213,338.321 196.657,331 C189.717,311.129 188.34,289.761 181.521,270 C179.082,262.932 172.494,257.187 165,256.188 C160.042,255.528 153.952,255.496 149,256.21 C112.941,261.41 123.156,316.211 101.906,335.786 C89.6485,347.077 76.8002,326.884 64.2099,338.39 C56.5292,345.41 51.9605,358.141 46.5995,367 C43.7826,371.655 40.2948,377.4 34,376.731 C28.8265,376.182 24.17,371.833 20,369.075 C16.5891,366.819 13.0338,364.721 10.1049,361.826 C-5.61688,346.286 10.867,320.133 22.2894,307 C40.73,285.797 65.5592,278.523 85.9606,260.675 C98.7301,249.504 110.36,225.897 112.79,209 C114.508,197.058 108.498,186.571 103.861,176 C96.2535,158.655 91.0976,141.816 88.8449,123 C88.2377,117.929 86.0094,111.076 87.3218,106.059 C88.6906,100.826 94.6985,103.594 96.9174,99.6821 C99.4788,95.1659 91.4492,86.5785 89.142,83 C76.9875,64.1483 65.0094,45.1273 53.2971,26 C50.8129,21.9431 41.4309,11.3976 43.4182,6.33255 C45.4655,1.11478 58.9671,9.10117 62,10.4244 C81.863,19.0902 99.4364,34.8876 114.58,50.0712 Z" style="stroke:#000000;stroke-opacity:1;stroke-width:4;stroke-linejoin:;stroke-miterlimit:2;stroke-linecap:butt;fill:none;"/>
        </g>
    </g>
</svg>
