<?xml version="1.0"?>
<svg version="1.1" xmlns="http://www.w3.org/2000/svg" xmlns:xlink="http://www.w3.org/1999/xlink" width="516" height="516">
    <desc iVinci="yes" version="4.6" gridStep="20" showGrid="no" snapToGrid="no" codePlatform="0"/>
    <g id="Layer1" name="Layer 1" opacity="1">
        <g id="Shape1">
            <desc shapeID="1" type="0" basicInfo-basicType="0" basicInfo-roundedRectRadius="12" basicInfo-polygonSides="6" basicInfo-starPoints="5" bounding="rect(-252.919,-238.609,505.838,477.217)" text="" font-familyName="" font-pixelSize="20" font-bold="0" font-underline="0" font-alignment="1" strokeStyle="0" markerStart="0" markerEnd="0" shadowEnabled="0" shadowOffsetX="0" shadowOffsetY="2" shadowBlur="4" shadowOpacity="160" blurEnabled="0" blurRadius="4" transform="matrix(1,0,0,1,258.662,258.814)" pers-center="0,0" pers-size="0,0" pers-start="0,0" pers-end="0,0" locked="0" mesh="" flag=""/>
            <path id="shapePath1" d="M169.678,440.238 L143,467 C141.036,468.96 136.713,474.867 133.362,473.654 C128.415,471.864 138.498,461.182 129.941,458.738 C126.702,457.813 116.737,459.389 118.496,464.702 C119.486,467.691 123.712,467.444 124.396,471.059 C125.171,475.153 123.252,480.906 122.565,485 C122.041,488.122 121.214,498.244 116.168,497.369 C110.183,496.331 118.231,481.15 115.958,477.39 C113.275,472.953 105.085,473.453 103.748,467.945 C102.572,463.106 109.492,457.403 112.113,454 C116.294,448.57 119.936,442.494 126.004,438.955 C135.401,433.474 147.176,434.393 156.996,430.146 C160.739,428.527 162.677,424.99 166.09,422.988 C172.678,419.122 187.595,419.09 176.986,408.223 C175.795,407.003 174.346,406.029 173,405 C167.377,411.839 163.573,422.592 153,422.63 C146.385,422.655 140.491,418.004 134,417.185 C128.86,416.537 120.241,419.223 116.015,416.497 C110.732,413.089 106.646,405.872 102.316,401.309 C99.0126,397.828 93.822,399.083 90.1088,396.4 C86.3525,393.687 85.7463,388.73 81.9421,385.954 C67.9076,375.715 47.5146,364.386 41.1335,347 C37.5646,337.276 43.8669,330.173 45.5355,321 C47.8857,308.08 46.6304,295.266 41.9352,283 C37.4916,271.391 31.482,254.508 21.9846,246.213 C18.2989,242.994 4.51143,239.365 5.8318,233.1 C7.09593,227.103 22.2009,223.16 27,220.186 C40.3343,211.922 56.3479,198.332 63.2145,184 C66.1094,177.958 64.4577,171.902 66.6026,166 C67.8172,162.658 71.2007,160.489 72.0486,157 C72.8134,153.853 70.8116,151.086 72.6466,148.039 C80.9095,134.322 107.171,124.552 108.501,107 C108.865,102.194 107.405,93.7442 102.891,91.1783 C98.1167,88.4638 85.7533,88.5201 86.2562,80.0394 C86.5077,75.7967 93.1412,73.7027 95.9961,71.4707 C103.67,65.4713 103.217,52.2317 113,48.9329 C124.088,45.1938 129.997,58.6668 138.17,62.0795 C141.57,63.4995 144.828,59.1102 148,58.3179 C157.482,55.9492 169.352,61.7657 177.956,58.3966 C185.038,55.6234 181.004,46.9128 186.148,42.6489 C197.427,33.2995 214.832,36.2965 227,29.0695 C231.724,26.2636 237.779,19.0562 243.891,20.3619 C250.551,21.7846 246.724,40.4993 247.59,46 C249.982,61.194 259.915,70.6056 274,75.9344 C291.263,82.4658 310.551,76.4629 328,83.0656 C339.22,87.3112 348.968,100.423 362,97.6096 C376.464,94.4873 384.6,80.7001 400,78.081 C402.912,77.5858 410.782,74.6413 412.928,77.618 C415.135,80.6787 411.075,84.6813 408.956,86.402 C403.632,90.7254 390.316,95.9699 395,104 C397.043,107.503 402.951,94.8008 409,92.233 C420.22,87.4702 430.447,88.6654 438.697,78 C443.346,71.989 439.737,55.9702 451.015,55.5286 C463.674,55.0329 472.278,64.2709 482.09,69.6821 C488.683,73.3185 496.985,73.9694 499.412,83.0394 C501.212,89.7652 493.664,95.555 495.785,101.996 C498.721,110.911 518.594,113.263 508.972,127.682 C505.752,132.507 495.872,129.033 491.043,130.434 C486.462,131.763 483.167,138.274 480.623,142 C472.72,153.573 479.738,164.432 475.258,175.996 C472.389,183.401 463.305,183.275 458.015,188.109 C446.612,198.527 444.349,211.258 430,219.401 C422.979,223.386 407.039,229.47 399,228.88 C386.122,227.936 382.349,216.353 370.272,229.465 C365.457,234.693 372.607,239.404 377,241.623 C387.184,246.766 406.927,254.431 394.581,269.957 C387.035,279.447 371.26,285.525 361,291.811 C336.29,306.949 311.599,322.103 287,337.424 C268.366,349.029 248.342,360.016 233.039,376 C221.897,387.638 215.158,402.546 203.545,413.683 C199.841,417.235 193.341,417.686 189,420.688 C182.44,425.223 175.284,434.617 169.678,440.238 Z" style="stroke:#000000;stroke-opacity:1;stroke-width:4;stroke-linejoin:miter;stroke-miterlimit:2;stroke-linecap:butt;fill:none;"/>
        </g>
    </g>
</svg>
