<?xml version="1.0"?>
<svg version="1.1" xmlns="http://www.w3.org/2000/svg" xmlns:xlink="http://www.w3.org/1999/xlink" width="516" height="516">
    <desc iVinci="yes" version="4.6" gridStep="20" showGrid="no" snapToGrid="no" codePlatform="0"/>
    <g id="Layer1" name="Layer 1" opacity="1">
        <g id="Shape1">
            <desc shapeID="1" type="0" basicInfo-basicType="0" basicInfo-roundedRectRadius="12" basicInfo-polygonSides="6" basicInfo-starPoints="5" bounding="rect(-252.914,-201.516,505.828,403.032)" text="" font-familyName="" font-pixelSize="20" font-bold="0" font-underline="0" font-alignment="1" strokeStyle="0" markerStart="0" markerEnd="0" shadowEnabled="0" shadowOffsetX="0" shadowOffsetY="2" shadowBlur="4" shadowOpacity="160" blurEnabled="0" blurRadius="4" transform="matrix(1,0,0,1,258.525,258.731)" pers-center="0,0" pers-size="0,0" pers-start="0,0" pers-end="0,0" locked="0" mesh="" flag=""/>
            <path id="shapePath1" d="M364.763,326.405 C346.342,335.117 328.38,349.541 311,360.189 C287.871,374.359 262.636,387.749 242,405.428 C229.417,416.208 222.074,430.206 211.036,442 C207.413,445.872 205.085,451.495 199.981,453.532 C195.535,455.308 191.405,457.21 187,454.502 C183.402,452.289 177.518,443.989 173.105,444.631 C169.727,445.123 168.004,450.588 166.211,452.96 C163.08,457.102 158.282,460.038 153,460.235 C144.689,460.546 136.557,454.923 128,454.326 C123.987,454.046 119.729,456.604 116.019,454.356 C110.802,451.197 106.658,443.723 102.455,439.263 C99.0031,435.6 93.9635,436.987 90.1335,434.258 C86.5464,431.702 86.3587,426.926 82.8557,424.243 C68.3569,413.14 48.8673,402.882 41.3634,385 C37.4259,375.616 43.327,368.794 45.3202,360 C47.9607,348.35 47.2784,335.28 43.3009,324 C38.9493,311.659 32.1575,292.045 21.9066,283.532 C18.0235,280.308 4.06563,277.004 5.75156,270.132 C7.12103,264.55 22.3346,260.33 27,257.547 C40.3777,249.568 56.7698,235.251 63.5069,221 C66.2973,215.097 65.0362,209.935 66.4722,204.039 C67.356,200.411 71.1268,198.557 72.0741,194.985 C72.9778,191.578 70.7186,188.448 72.7824,185.17 C81.3545,171.555 107.136,162.022 108.501,144 C108.822,139.76 107.624,131.481 103.772,129.013 C98.8341,125.85 85.4474,126.248 86.1173,117.043 C86.4104,113.016 92.2526,111.345 94.9992,109.363 C102.949,103.625 102.949,90.2335 112.004,86.7423 C124.365,81.9762 129.731,96.9827 139.05,99.6551 C142.087,100.526 146.694,96.0236 150.001,95.4437 C158.568,93.9413 170.3,99.0466 177.945,96.0918 C185.185,93.2938 180.929,84.0673 186.228,79.6991 C197.384,70.5042 214.938,73.5048 227,66.3873 C231.8,63.5548 237.736,56.0804 243.941,57.3619 C250.353,58.686 247.054,81.9173 248.503,88 C252.191,103.484 267.944,113.402 283,115.703 C297.2,117.873 312.271,114.951 326,119.696 C338.393,123.979 347.969,137.176 362,134.671 C376.241,132.128 384.961,118.208 400,115.389 C403.102,114.808 409.708,112.145 412.377,114.693 C415.424,117.601 411.124,121.806 408.981,123.625 C403.869,127.965 388.13,131.436 395,141 C395.142,144.705 403.07,132.048 409,129.353 C419.579,124.544 428.318,126.278 436.945,116.999 C442.905,110.59 439.852,95.6764 450.015,93.3326 C462.202,90.5217 472.693,102.06 482,106.825 C489.027,110.423 496.025,111.198 499.254,120 C501.776,126.877 493.823,132.381 495.836,138.996 C498.984,149.347 516.318,147.739 510.106,162.956 C507.069,170.396 497.988,165.75 492.015,167.434 C487.4,168.734 484.189,174.26 481.622,178 C473.482,189.855 479.838,201.017 475.397,212.999 C472.533,220.725 463.564,220.574 458.09,225.34 C446.127,235.758 444.556,249.583 429,257.341 C421.356,261.153 407.525,266.656 399,266.095 C386.465,265.27 382.997,254.325 371.153,266.325 C361.073,276.538 391.337,282.837 395.142,289.015 C406.005,306.655 378.189,321.489 364.763,326.405 Z" style="stroke:#000000;stroke-opacity:1;stroke-width:4;stroke-linejoin:miter;stroke-miterlimit:2;stroke-linecap:butt;fill:none;"/>
        </g>
    </g>
</svg>
