<?xml version="1.0"?>
<svg version="1.1" xmlns="http://www.w3.org/2000/svg" xmlns:xlink="http://www.w3.org/1999/xlink" width="516" height="516">
    <desc iVinci="yes" version="4.6" gridStep="20" showGrid="no" snapToGrid="no" codePlatform="0"/>
    <g id="Layer1" name="Layer 1" opacity="1">
        <g id="Shape1">
            <desc shapeID="1" type="0" basicInfo-basicType="0" basicInfo-roundedRectRadius="12" basicInfo-polygonSides="6" basicInfo-starPoints="5" bounding="rect(-242.057,-252.494,484.115,504.987)" text="" font-familyName="" font-pixelSize="20" font-bold="0" font-underline="0" font-alignment="1" strokeStyle="0" markerStart="0" markerEnd="0" shadowEnabled="0" shadowOffsetX="0" shadowOffsetY="2" shadowBlur="4" shadowOpacity="160" blurEnabled="0" blurRadius="4" transform="matrix(1,0,0,1,258.693,258.618)" pers-center="0,0" pers-size="0,0" pers-start="0,0" pers-end="0,0" locked="0" mesh="" flag=""/>
            <path id="shapePath1" d="M173.777,409.223 C164.706,418.294 154.202,429.979 144,437.81 C139.516,441.252 133.383,438.616 130.569,444.024 C127.582,449.763 122.774,465.692 124.832,471.96 C126.124,475.896 133.047,477.546 132.534,481.924 C132.141,485.279 127.496,486.849 125,488.288 C119.413,491.509 114.473,495.885 110.529,501 C108.266,503.936 106.568,509.336 102.918,510.824 C100.043,511.996 98.7448,509.346 99.8904,506.981 C103.035,500.49 110.525,496.383 114.157,490 C116.73,485.477 114.878,480.842 115.63,476 C117.025,467.024 122.998,457.056 122.667,448.015 C122.37,439.896 106.137,440.687 111.897,431 C116.776,422.795 126.014,410.198 135,406.482 C144.528,402.542 157.779,403.74 165.83,396.792 C170.004,393.19 186.258,389.671 184.338,382.997 C183.519,380.149 179.675,375.761 176.34,377.176 C171.136,379.384 169.735,387.877 163.999,390.682 C155.476,394.851 148.172,388.218 140,387.185 C135.055,386.56 128.694,388.674 124.171,387.484 C117.692,385.779 113.482,374.98 108.455,370.857 C105.266,368.241 100.563,369.564 97.2284,367.142 C94.2778,364.999 94.2544,361.073 91.686,358.634 C81.4741,348.937 68.9185,342.982 59.2863,332 C54.7102,326.783 49.864,321.223 49.1998,314 C48.6531,308.054 52.6533,303.459 54.2114,298 C56.6552,289.438 56.4422,279.676 54.9159,271 C52.3479,256.403 44.1724,236.397 34.4823,225.093 C30.6768,220.654 16.6358,217.49 16.6358,211.039 C16.6358,206.762 23.9397,204.773 27,203.247 C39.5279,196.998 48.6159,188.98 58.9961,179.715 C65.7465,173.689 71.9702,165.911 74.2392,157 C75.1448,153.443 73.8671,149.341 75.1968,146 C76.382,143.022 79.4259,141.144 80.2924,138 C81.1423,134.917 79.0167,132.042 80.7076,129.039 C88.3399,115.484 107.518,108.817 113.91,94 C116.081,88.9698 115.337,78.3471 110.721,74.7423 C107.969,72.5927 104.064,73.0835 101,71.5432 C97.8271,69.9482 91.8435,65.4672 94.662,61.3896 C97.4175,57.4033 103.48,55.7656 106.772,51.9599 C111.773,46.1792 111.074,35.7471 120.001,33.6126 C131.123,30.9534 135.796,44.16 144.17,46.6589 C146.942,47.4864 151.036,43.4348 154.004,42.8889 C162.909,41.2507 171.463,44.7624 179.985,43.5663 C188.802,42.3287 184.852,32.1074 190.148,27.6381 C201.372,18.1672 219.076,21.4101 231,13.2253 C234.705,10.682 240.559,4.30975 245.682,6.61884 C249.76,8.45685 247.999,18.3851 248,22 C248.004,32.9793 250.307,43.872 259.09,51.331 C277.206,66.7154 298.019,59.815 319,64.5139 C330.372,67.0608 337.5,75.6989 348,79.4514 C364.639,85.398 376.578,65.2898 392,62.1998 C395.473,61.504 403.274,58.4562 406.377,61.0316 C408.751,63.0021 406.387,66.2058 404.851,67.8156 C399.178,73.7622 384.16,79.8238 387,84 C392.584,87.7426 395.745,80.4411 400.309,77.6776 C411.279,71.0345 424.507,73.5204 432.258,61 C436.317,54.4432 432.378,45.3705 441.04,41.0424 C451.127,36.0025 465.547,48.674 473,53.2585 C475.761,54.9571 479.179,54.7364 481.83,56.6026 C486.247,59.7115 490.633,65.3885 489.617,71 C488.746,75.8026 484.473,81.0172 487.032,85.956 C491.505,94.5899 505.038,93.9982 499.397,107.941 C496.884,114.152 488.094,110.241 483.005,111.724 C478.003,113.181 474.431,118.837 471.694,123 C464.531,133.898 471.127,144.407 467.106,154.999 C464.175,162.719 455.553,162.43 450.039,167.225 C438.437,177.314 437.147,190.611 422,198.004 C415.231,201.308 402.498,206.508 395,206.41 C383.246,206.258 375.113,193.041 365.466,208.09 C362.162,213.245 370.245,217.446 374,219.204 C384.095,223.93 399.091,230.419 389.991,244.96 C385.257,252.525 373.392,256.844 366,261.424 C346.378,273.582 326.529,285.373 307,297.681 C283.882,312.252 258.052,325.328 238.001,344.09 C225.484,355.801 218.586,371.802 206.406,383.683 C203.18,386.83 197.776,387.155 194,389.754 C187.289,394.372 179.521,403.479 173.777,409.223 Z" style="stroke:#000000;stroke-opacity:1;stroke-width:4;stroke-linejoin:miter;stroke-miterlimit:2;stroke-linecap:butt;fill:none;"/>
        </g>
    </g>
</svg>
