<?xml version="1.0"?>
<svg version="1.1" xmlns="http://www.w3.org/2000/svg" xmlns:xlink="http://www.w3.org/1999/xlink" width="100" height="100">
    <desc iVinci="yes" version="4.6" gridStep="20" showGrid="no" snapToGrid="no" codePlatform="0"/>
    <g id="Layer1" name="Layer 1" opacity="1">
        <g id="Shape1">
            <desc shapeID="1" type="0" basicInfo-basicType="0" basicInfo-roundedRectRadius="12" basicInfo-polygonSides="6" basicInfo-starPoints="5" bounding="rect(-50,-46.01,100,92.02)" text="" font-familyName="" font-pixelSize="20" font-bold="0" font-underline="0" font-alignment="1" strokeStyle="0" markerStart="0" markerEnd="0" shadowEnabled="0" shadowOffsetX="0" shadowOffsetY="2" shadowBlur="4" shadowOpacity="160" blurEnabled="0" blurRadius="4" transform="matrix(1,0,0,1,50,50)" pers-center="0,0" pers-size="0,0" pers-start="0,0" pers-end="0,0" locked="0" mesh="" flag=""/>
            <path id="shapePath1" d="M13.291,17.281 L6.713,18.952 L6.713,31.632 L13.291,29.934 L13.291,17.281 M33.402,80.248 L33.932,80.392 L34.822,80.644 L47.771,84.31 L47.771,31.236 L33.402,27.247 L33.402,80.248 M61.638,20.507 L33.528,12.132 L33.403,12.168 L33.403,24.803 L63.219,33.088 L63.219,20.975 L62.563,20.777 L61.638,20.507 M50.126,84.975 L63.219,88.677 L63.219,68.691 L50.126,61.952 L50.126,84.975 M15.645,29.322 L32.728,24.919 L32.728,12.339 L15.645,16.679 L15.645,29.322 M6.713,87.239 L31.246,80.625 L32.144,80.383 L32.728,80.231 L32.728,27.346 L6.713,34.059 L6.713,87.239 M50.126,59.301 L63.219,66.05 L63.219,35.523 L50.126,31.892 L50.126,59.301 M63.893,20.938 L63.893,33.06 L93.279,25.188 L93.279,12.814 L65.349,20.543 L64.414,20.795 L63.893,20.938 M63.561,14.063 L33.672,5.167 L0,13.731 L0,96.01 L32.998,87.114 L63.893,95.84 C63.893,95.84 93.908,87.869 96.694,87.151 C99.47,86.431 100,85.685 100,82.854 C100,81.452 100,3.99 100,3.99 L63.561,14.063 M96.639,83.689 L63.92,92.361 L33.905,83.879 L33.015,83.627 L32.117,83.869 L3.361,91.625 L3.361,16.337 L33.6,8.654 L62.599,17.281 L63.525,17.559 L64.451,17.307 L96.639,8.402 L96.639,83.689 M63.893,88.866 L63.948,88.875 L86.288,82.962 L86.288,62.932 L63.893,68.809 L63.893,88.866 M63.893,66.373 L93.279,58.663 L93.279,27.624 L63.893,35.496 L63.893,66.373 M88.632,82.333 L93.278,81.102 L93.278,61.089 L88.632,62.312 L88.632,82.333 Z" style="stroke:none;fill-rule:nonzero;fill:#ffffff;fill-opacity:1;"/>
        </g>
    </g>
</svg>
